<svg height="512" viewBox="0 0 64 64" width="512" xmlns="http://www.w3.org/2000/svg"><g id="Tablet-Smartphone-Control-Engineering-Setting"><path d="m61 13v28a4 4 0 0 1 -4 4h-38v-36h38a4 4 0 0 1 4 4z" fill="#5aaae7"/><path d="m19 9v36h-6a4 4 0 0 1 -4-4v-28a4 4 0 0 1 4-4z" fill="#c6c5ca"/><path d="m51.68 31.47a9.8 9.8 0 0 1 -1.09 2.62l2.02 2.69-2.83 2.83-2.69-2.02a9.8 9.8 0 0 1 -2.62 1.09l-.47 3.32h-4l-.47-3.32a9.8 9.8 0 0 1 -2.62-1.09l-2.69 2.02-2.83-2.83 2.02-2.69a9.8 9.8 0 0 1 -1.09-2.62l-3.32-.47v-4l3.32-.47a9.8 9.8 0 0 1 1.09-2.62l-2.02-2.69 2.83-2.83 2.69 2.02a9.8 9.8 0 0 1 2.62-1.09l.47-3.32h4l.47 3.32a9.8 9.8 0 0 1 2.62 1.09l2.69-2.02 2.83 2.83-2.02 2.69a9.8 9.8 0 0 1 1.09 2.62l3.32.47v4z" fill="#3d9ae2"/><path d="m49.68 29.47a9.8 9.8 0 0 1 -1.09 2.62l2.02 2.69-2.83 2.83-2.69-2.02a9.8 9.8 0 0 1 -2.62 1.09l-.47 3.32h-4l-.47-3.32a9.8 9.8 0 0 1 -2.62-1.09l-2.69 2.02-2.83-2.83 2.02-2.69a9.8 9.8 0 0 1 -1.09-2.62l-3.32-.47v-4l3.32-.47a9.8 9.8 0 0 1 1.09-2.62l-2.02-2.69 2.83-2.83 2.69 2.02a9.8 9.8 0 0 1 2.62-1.09l.47-3.32h4l.47 3.32a9.8 9.8 0 0 1 2.62 1.09l2.69-2.02 2.83 2.83-2.02 2.69a9.8 9.8 0 0 1 1.09 2.62l3.32.47v4z" fill="#ff9811"/><circle cx="40" cy="27" fill="#ffd422" r="5"/><circle cx="14" cy="27" fill="#e6e7e8" r="2"/><path d="m19 31.95a1.4 1.4 0 0 0 -.34-.13 2 2 0 0 0 -2.45 1.42l-1.16 4.3a1.981 1.981 0 0 1 -1.92 1.47h-.02a1.96 1.96 0 0 1 -1.68-.96l-2.43-4.05v-9a6 6 0 0 0 -6 6v11.53a1.974 1.974 0 0 0 .21.89l1.58 3.16a1.974 1.974 0 0 1 .21.89v11.53h10v-6.11a8.081 8.081 0 0 1 .84-3.58l1.53-3.04a6.431 6.431 0 0 0 .46-1.27 6.13 6.13 0 0 0 .17-1.42v-.79a6.216 6.216 0 0 1 .2-1.55l.8-2.98 1.07-3.99a1.861 1.861 0 0 0 .07-.52 2 2 0 0 0 -1.14-1.8z" fill="#ffc477"/><path d="m28 48h14v2h-14z" fill="#5aaae7"/><path d="m44 48h2v2h-2z" fill="#5aaae7"/><path d="m32 4h14v2h-14z" fill="#5aaae7"/><path d="m28 4h2v2h-2z" fill="#5aaae7"/><g fill="#1e81ce"><path d="m54 14h4v2h-4z"/><path d="m54 18h4v2h-4z"/><path d="m22 14h4v2h-4z"/><path d="m22 18h4v2h-4z"/><path d="m22 40h2v2h-2z"/><path d="m26 40h4v2h-4z"/></g></g></svg>