<svg enable-background="new 0 0 140 140" height="512" viewBox="0 0 140 140" width="512" xmlns="http://www.w3.org/2000/svg"><circle cx="70" cy="70" fill="#de594e" r="64"/><path d="m134 69.9997482c0-4.3320312-.4359741-8.5624962-1.2565308-12.6533165l-21.2368088-21.2368164-.1099854-.1196289c-.3599854-.3701172-.8699951-.6000977-1.4299927-.6000977h-79.9299964c-1.1100464 0-2 .8896484-2 2v65.2197266c0 .5600586.2299805 1.0600586.5899658 1.4199219l.1300049.1303711 28.5822754 28.5820389c4.0933228.8217773 8.3259315 1.2578125 12.6610756 1.2578125 35.3463135-.0000038 63.9999924-28.6533318 63.9999924-64.0000115z" opacity=".1"/><path d="m109.9665146 35.3864555h-79.9331036c-1.1044922 0-2 .8955078-2 2v8.7182617h83.9331055v-8.7182617c-.0000019-1.1044922-.8955097-2-2.0000019-2z" fill="#344d5b"/><path d="m28.033411 45.804718v56.8082962c0 1.1049805.8955078 2 2 2h79.9331055c1.1044922 0 2-.8950195 2-2v-56.8082962z" fill="#ededed"/><g fill="#b1b2b6"><circle cx="33.996" cy="40.746" r="1.963"/><circle cx="39.674" cy="40.746" r="1.963"/><path d="m45.3517723 38.7829399c-1.0837402 0-1.9624023.8789062-1.9624023 1.9628906s.8786621 1.9628906 1.9624023 1.9628906c1.0839844 0 1.9628906-.8789062 1.9628906-1.9628906s-.8789062-1.9628906-1.9628906-1.9628906z"/></g><path d="m55.7558441 88.9123688v4.1436081l3.3507767 1.2580566c.2042007 1.1950226.5121269 2.3545151.9218636 3.4651031l-2.2677917 2.7590942 2.071804 3.588501 3.5297661-.5856628c.7657967.9191818 1.6139259 1.7673111 2.5332146 2.5333023l-.5856705 3.5296707 3.5886917 2.0718002 2.7589035-2.2677841c1.1107864.4099274 2.2702713.7178497 3.4651031.9218597l1.2580566 3.3508759h4.1437988l1.2580566-3.3508759c1.1948318-.20401 2.3543243-.5119324 3.4651108-.9218597l2.7588959 2.2677841 3.5886993-2.0718002-.5856705-3.5296707c.919281-.7659912 1.7674103-1.6141205 2.5332108-2.5333023l3.5297699.5856628 2.0718002-3.588501-2.2677917-2.7590942c.4097366-1.1105881.7176666-2.2700806.9218674-3.4651031l3.3507767-1.2580566v-4.1436081l-3.3507767-1.2580566c-.2042007-1.1950226-.5121307-2.3545151-.9218674-3.4651031l2.2677917-2.7590942-2.0718002-3.588501-3.5297699.5856628c-.7658005-.9191895-1.6139297-1.7673187-2.5332108-2.5333099l.5856705-3.5296631-3.5886993-2.0718079-2.7588959 2.2677917c-1.1107864-.4099274-2.2702789-.7178497-3.4651108-.9218597l-1.2580566-3.3508759h-4.1437988l-1.2580566 3.3508759c-1.1948318.20401-2.3543167.5119324-3.4651031.9218597l-2.7589035-2.2677917-3.5886917 2.0718079.5856705 3.5296631c-.9192886.7659912-1.7674179 1.6141205-2.5332146 2.5333099l-3.5297661-.5856628-2.071804 3.588501 2.2677917 2.7590942c-.4097366 1.1105881-.7176628 2.2700806-.9218636 3.4651031zm22.6966171-6.9176026c4.9647064 0 8.9893112 4.0247955 8.9893112 8.9894028 0 4.9646149-4.0246048 8.9894104-8.9893112 8.9894104s-8.9893036-4.0247955-8.9893036-8.9894104c.0000001-4.9646072 4.0245972-8.9894028 8.9893036-8.9894028z" fill="#d6b24e"/><path d="m78.4530716 75.3661118c8.6111603 0 15.6177521 7.0062943 15.6177521 15.6180573s-7.0065918 15.6180573-15.6177521 15.6180573c-8.6123734 0-15.618969-7.0062866-15.618969-15.6180573s7.0065956-15.6180573 15.618969-15.6180573zm0 27.5018615c6.5519714 0 11.8834991-5.330925 11.8834991-11.8838043s-5.3315277-11.8837967-11.8834991-11.8837967c-6.5531845 0-11.8847122 5.3309174-11.8847122 11.8837967s5.3315277 11.8838043 11.8847122 11.8838043z" fill="#fed35b"/><path d="m39.4794693 60.5632439-.628624 2.507988 1.8372536 1.2698097c-.0577011.7542877-.0472298 1.5028.0322838 2.2371674l-1.7911987 1.325943.7095795 2.4863129 2.2253036.181015c.3240623.6725388.7087364 1.3145523 1.148941 1.9176483l-.8899689 2.0475388 1.8578033 1.7984314 2.0139198-.9540634c.6101303.4166336 1.2652168.7789154 1.9574585 1.0836639l.2531013 2.2190323 2.5081024.6286545 1.2698212-1.8373108c.7541428.057785 1.5026588.0473175 2.2371712-.0322876l1.3258247 1.7911758 2.4864311-.7095566.1810036-2.2252426c.6726189-.3241653 1.3146324-.7088394 1.9175949-1.1490173l2.0475998.8899918 1.7984047-1.8576889-.9540367-2.0140381c.4164886-.6100464.7787743-1.2651291 1.0836639-1.9574585l2.2189791-.2531129.628624-2.507988-1.8372574-1.2698135c.0577011-.7542801.0472336-1.5028-.03228-2.2371674l1.7911987-1.3259392-.7095795-2.4863167-2.2253036-.181015c-.3240623-.6725349-.7087402-1.3145485-1.148941-1.9176407l.8899689-2.0475426-1.8578033-1.7984352-2.0139198.9540672c-.6101303-.4166336-1.2652168-.7789154-1.9574585-1.0836639l-.2531013-2.2190323-2.5081024-.6286583-1.2698212 1.8373146c-.7541428-.0577888-1.5026627-.0473175-2.2371712.0322838l-1.3258247-1.791172-2.4864349.7095528-.181 2.2252464c-.6726189.3241615-1.3146324.7088394-1.9175987 1.1490135l-2.047596-.8899879-1.7984085 1.8576927.9540367 2.0140343c-.4164886.6100426-.7787704 1.2651291-1.0836639 1.9574585zm14.7869873-.7436943c3.0049744.7531967 4.8303337 3.7998428 4.0771523 6.8047562-.7531815 3.004921-3.7997398 4.8304214-6.8047142 4.0772247s-4.8303337-3.7998428-4.0771523-6.8047562c.7531815-3.0049172 3.7997398-4.8304176 6.8047142-4.0772247z" fill="#4288b9"/><path d="m55.2724571 55.8075371c5.2120514 1.3064003 8.3899879 6.6100464 7.0834999 11.8224678-1.3064919 5.2124176-6.6102753 8.3901215-11.8223267 7.083725-5.2127876-1.3065796-8.3907242-6.6102295-7.0842361-11.8226471 1.3064919-5.2124215 6.6102753-8.3901291 11.8230629-7.0835457zm-4.172306 16.6459694c3.9656944.9939957 8.0014458-1.4237823 8.9955826-5.3900299.9941368-3.9662399-1.4241104-8.0017166-5.389801-8.9957161-3.9664268-.9941826-8.0021782 1.4236031-8.996315 5.389843-.9941369 3.9662475 1.4241103 8.0017166 5.3905334 8.995903z" fill="#4da0dc"/></svg>