<svg id="Layer_1" enable-background="new 0 0 256 256" height="512" viewBox="0 0 256 256" width="512" xmlns="http://www.w3.org/2000/svg"><path d="m98 226.346v-174.145c0-1.617 1.311-2.928 2.928-2.928h-34.585c-2.398 0-4.343 1.944-4.343 4.343v171.315c0 2.398 1.944 4.343 4.343 4.343h34.585c-1.617 0-2.928-1.311-2.928-2.928z" fill="#ede49d"/><path d="m189.657 49.274h-34.585c1.617 0 2.928 1.311 2.928 2.928v174.145c0 1.617-1.311 2.928-2.928 2.928h34.585c2.398 0 4.343-1.944 4.343-4.343v-171.316c0-2.398-1.944-4.342-4.343-4.342z" fill="#d3ba2a"/><path d="m158 226.346v-174.145c0-1.617-1.311-2.928-2.928-2.928h-54.145c-1.617 0-2.928 1.311-2.928 2.928v174.145c0 1.617 1.311 2.928 2.928 2.928h54.145c1.617 0 2.928-1.311 2.928-2.928z" fill="#eee045"/><path d="m80 74.042h27.134v111.889h-27.134z" fill="#a4d4a0"/><path d="m148.866 74.042h27.134v111.889h-27.134z" fill="#419b46"/><path d="m107.134 74.042h41.731v111.889h-41.731z" fill="#6287c5"/><path d="m176 188.932h-96c-1.657 0-3-1.343-3-3v-111.89c0-1.657 1.343-3 3-3h96c1.657 0 3 1.343 3 3v111.889c0 1.657-1.343 3.001-3 3.001zm-93-6h90v-105.89h-90z" fill="#1c2d6b"/><path d="m189.657 232.273h-123.314c-4.049 0-7.343-3.294-7.343-7.342v-171.315c0-4.049 3.294-7.343 7.343-7.343h123.314c4.049 0 7.343 3.294 7.343 7.343v171.315c0 4.048-3.294 7.342-7.343 7.342zm-123.314-180c-.74 0-1.343.603-1.343 1.343v171.315c0 .74.603 1.342 1.343 1.342h123.314c.74 0 1.343-.602 1.343-1.342v-171.315c0-.74-.603-1.343-1.343-1.343z" fill="#1c2d6b"/><path d="m128.104 133.209c-26.452 0-47.896 21.444-47.896 47.896v4.789h28.737v-33.527c.001-10.581 8.578-19.158 19.159-19.158z" fill="#89aadb"/><path d="m128.104 133.209c10.581 0 19.158 8.577 19.158 19.158v33.527h28.738v-4.789c0-26.453-21.444-47.896-47.896-47.896z" fill="#4b67b0"/><path d="m128.104 133.209c-10.581 0-19.158 8.577-19.158 19.158v33.527h38.317v-33.527c0-10.581-8.578-19.158-19.159-19.158z" fill="#6287c5"/><path d="m123.315 143.464v-8.059c1.512-1.425 3.121-2.196 4.79-2.196-5.007 0-9.833.771-14.369 2.196v8.059c0 7.936 6.433 14.369 14.369 14.369-2.646 0-4.79-6.433-4.79-14.369z" fill="#ede49d"/><path d="m128.104 133.209c1.669 0 3.277.771 4.79 2.196v8.059c0 7.936-2.144 14.369-4.79 14.369 7.936 0 14.369-6.433 14.369-14.369v-8.059c-4.536-1.425-9.362-2.196-14.369-2.196z" fill="#d3ba2a"/><path d="m132.894 143.464v-8.059c-1.512-1.425-3.121-2.196-4.79-2.196s-3.277.771-4.79 2.196v8.059c0 7.936 2.144 14.369 4.79 14.369 2.645 0 4.79-6.433 4.79-14.369z" fill="#eee045"/><path d="m128.104 160.833c-9.577 0-17.369-7.792-17.369-17.369v-8.059c0-1.311.851-2.469 2.101-2.862 9.859-3.098 20.677-3.098 30.536 0 1.25.393 2.101 1.551 2.101 2.862v8.059c0 9.577-7.791 17.369-17.369 17.369zm-11.369-23.17v5.801c0 6.269 5.101 11.369 11.369 11.369s11.368-5.1 11.368-11.369v-5.801c-7.396-1.932-15.34-1.932-22.737 0z" fill="#1c2d6b"/><path d="m176 188.894h-95.792c-1.657 0-3-1.343-3-3v-4.789c0-28.064 22.832-50.896 50.896-50.896 28.063 0 50.896 22.832 50.896 50.896v4.789c0 1.656-1.343 3-3 3zm-92.792-6h89.792v-1.789c0-24.756-20.14-44.896-44.896-44.896s-44.896 20.14-44.896 44.896z" fill="#1c2d6b"/><path d="m115.332 104.471c0-21.162 5.718-38.317 12.772-38.317-21.162 0-38.317 17.155-38.317 38.317s17.155 38.317 38.317 38.317c-7.054 0-12.772-17.155-12.772-38.317z" fill="#ede49d"/><path d="m128.104 66.155c7.054 0 12.772 17.155 12.772 38.317s-5.718 38.317-12.772 38.317c21.162 0 38.317-17.155 38.317-38.317s-17.155-38.317-38.317-38.317z" fill="#d3ba2a"/><ellipse cx="128.104" cy="104.471" fill="#eee045" rx="12.772" ry="38.317"/><circle cx="115.332" cy="112.408" fill="#1c2d6b" r="3.146"/><circle cx="140.876" cy="112.408" fill="#1c2d6b" r="3.146"/><path d="m133.637 125.035c-1.035 0-2.043-.537-2.599-1.497-.605-1.045-1.729-1.694-2.934-1.694s-2.329.649-2.935 1.694c-.829 1.434-2.664 1.923-4.1 1.093-1.434-.831-1.923-2.666-1.092-4.1 1.674-2.891 4.788-4.687 8.126-4.687s6.451 1.796 8.125 4.687c.831 1.434.342 3.269-1.092 4.1-.472.274-.99.404-1.499.404z" fill="#1c2d6b"/><path d="m128.104 66.155c-21.162 0-38.317 17.155-38.317 38.317 10.039 0 19.172-3.866 26.004-10.184 1.488-16.217 6.435-28.133 12.313-28.133z" fill="#ef7f72"/><path d="m140.417 94.288c6.832 6.318 15.965 10.184 26.004 10.184 0-21.162-17.155-38.317-38.317-38.317 5.878 0 10.826 11.916 12.313 28.133z" fill="#e8383b"/><path d="m128.104 66.155c0 11.123 4.744 21.133 12.313 28.133-1.487-16.217-6.435-28.133-12.313-28.133s-10.825 11.916-12.313 28.133c7.57-7 12.313-17.011 12.313-28.133z" fill="#e95947"/><g fill="#1c2d6b"><path d="m166.421 107.471c-17.318 0-32.184-10.712-38.316-25.858-6.133 15.146-20.998 25.858-38.317 25.858-1.657 0-3-1.343-3-3 0-22.782 18.535-41.316 41.317-41.316s41.316 18.535 41.316 41.316c0 1.657-1.343 3-3 3zm-41.454-38.178c-16.976 1.502-30.539 15.066-32.041 32.04 16.974-1.502 30.538-15.066 32.041-32.04zm6.276 0c1.502 16.974 15.065 30.538 32.039 32.04-1.502-16.974-15.065-30.538-32.039-32.04z"/><path d="m128.104 145.788c-22.782 0-41.317-18.535-41.317-41.316s18.535-41.316 41.317-41.316 41.316 18.535 41.316 41.316-18.533 41.316-41.316 41.316zm0-76.633c-19.474 0-35.317 15.843-35.317 35.316s15.844 35.316 35.317 35.316 35.316-15.843 35.316-35.316-15.842-35.316-35.316-35.316z"/><path d="m99.367 188.894c-1.657 0-3-1.343-3-3v-14.372c0-1.657 1.343-3 3-3s3 1.343 3 3v14.372c0 1.656-1.343 3-3 3z"/><path d="m156.842 188.892c-1.657 0-3-1.343-3-3v-14.354c0-1.657 1.343-3 3-3s3 1.343 3 3v14.354c0 1.657-1.343 3-3 3z"/></g><path d="m186.906 172.134-10.243-10.243-10.242 10.243-10.243-10.243-10.242 10.243 10.242 10.242-10.242 10.243 10.242 10.242 10.243-10.242 10.242 10.242 10.243-10.242-10.243-10.243z" fill="#e95947"/><path d="m176.663 205.861c-.768 0-1.535-.293-2.121-.879l-8.121-8.121-8.122 8.122c-1.172 1.171-3.07 1.171-4.242 0l-10.242-10.242c-.562-.562-.879-1.326-.879-2.121 0-.796.316-1.559.879-2.122l8.121-8.121-8.121-8.122c-1.172-1.171-1.172-3.071 0-4.242l10.242-10.242c1.172-1.172 3.07-1.171 4.242 0l8.122 8.121 8.121-8.121c1.172-1.172 3.07-1.171 4.242 0l10.243 10.242c.562.563.879 1.326.879 2.122 0 .795-.316 1.559-.879 2.121l-8.121 8.122 8.121 8.121c.562.563.879 1.326.879 2.122s-.316 1.559-.879 2.122l-10.243 10.242c-.586.583-1.353.876-2.121.876zm-10.242-16.242c.796 0 1.559.316 2.121.879l8.121 8.121 6-6-8.121-8.121c-.562-.563-.879-1.326-.879-2.122 0-.795.316-1.559.879-2.121l8.121-8.122-6-6-8.121 8.121c-1.172 1.172-3.07 1.171-4.242 0l-8.122-8.121-6 6 8.122 8.122c.562.562.879 1.326.879 2.121 0 .796-.316 1.559-.879 2.122l-8.121 8.121 5.999 6 8.122-8.122c.562-.562 1.325-.878 2.121-.878z" fill="#1c2d6b"/><path d="m152 202.273h-72c-1.657 0-3-1.343-3-3s1.343-3 3-3h72c1.657 0 3 1.343 3 3s-1.343 3-3 3z" fill="#1c2d6b"/><path d="m176 215.396h-96c-1.657 0-3-1.343-3-3s1.343-3 3-3h96c1.657 0 3 1.343 3 3s-1.343 3-3 3z" fill="#1c2d6b"/><path d="m125.473 32.726c0-3.278 1.128-5.934 2.527-5.991-3.265.057-5.896 2.713-5.896 5.991v6h3.369z" fill="#6287c5"/><path d="m110 51.726v-8c0-2.761.959-5 2.143-5h-21.143c-2.761 0-5 2.239-5 5v8c0 2.761 2.239 5 5 5h21.143c-1.184 0-2.143-2.238-2.143-5z" fill="#89aadb"/><path d="m130.616 32.978v5.749h3.488v-5.749c0-3.285-2.532-6.15-5.815-6.249-.05-.002-.099.004-.149.003 1.4.12 2.476 2.974 2.476 6.246z" fill="#6287c5"/><path d="m165 38.726h-21.143c1.183 0 2.143 2.239 2.143 5v8c0 2.761-.959 5-2.143 5h21.143c2.761 0 5-2.239 5-5v-8c0-2.761-2.239-5-5-5z" fill="#4b67b0"/><path d="m128.124 26.729c-.042-.003-.083.005-.124.006.047-.001.093-.003.14-.003-.005 0-.011-.002-.016-.003z" fill="#6287c5"/><path d="m146 51.726v-8c0-2.761-.959-5-2.143-5h-9.753-3.488v-5.749c0-3.272-1.077-6.125-2.476-6.245-.047 0-.093.002-.14.003-1.399.057-2.527 2.713-2.527 5.991v6h-3.369-9.961c-1.183 0-2.143 2.239-2.143 5v8c0 2.761.959 5 2.143 5h31.714c1.184 0 2.143-2.238 2.143-5z" fill="#6287c5"/><path d="m165 59.727h-74c-4.411 0-8-3.589-8-8v-8c0-4.411 3.589-8 8-8h28.104v-3c0-2.455.971-4.749 2.732-6.459s4.108-2.615 6.542-2.537c4.812.145 8.726 4.293 8.726 9.248v2.749h27.896c4.411 0 8 3.589 8 8v8c0 4.41-3.589 7.999-8 7.999zm-74-18c-1.103 0-2 .897-2 2v8c0 1.103.897 2 2 2h74c1.103 0 2-.897 2-2v-8c0-1.103-.897-2-2-2h-30.896c-1.657 0-3-1.343-3-3v-5.749c0-1.744-1.304-3.202-2.905-3.25-.803-.026-1.597.276-2.184.846-.588.57-.911 1.335-.911 2.153v6c0 1.657-1.343 3-3 3z" fill="#1c2d6b"/></svg>