<svg id="Layer_5" enable-background="new 0 0 64 64" height="512" viewBox="0 0 64 64" width="512" xmlns="http://www.w3.org/2000/svg"><path d="m21.92 54c.06.33.08.66.08 1 0 3.87-3.13 7-7 7s-7-3.13-7-7c0-.34.02-.68.08-1 .48-3.4 3.39-6 6.92-6s6.44 2.6 6.92 6z" fill="#838f9b"/><path d="m57.92 54c.06.32.08.66.08 1 0 3.87-3.13 7-7 7s-7-3.13-7-7c0-.34.02-.67.08-1 .48-3.4 3.39-6 6.92-6s6.44 2.6 6.92 6z" fill="#838f9b"/><path d="m44 54-3 4h-16l-3-4z" fill="#aab2bd"/><g fill="#ccd1d9"><path d="m52 48h8c1.1 0 2 .9 2 2v2c0 1.1-.9 2-2 2h-2.08c-.48-3.4-3.39-6-6.92-6z"/><path d="m36 48h15c-3.53 0-6.44 2.6-6.92 6h-.08-22-.08c-.48-3.4-3.39-6-6.92-6h11 6z"/><path d="m15 48c-3.53 0-6.44 2.6-6.92 6h-4.08c-1.1 0-2-.9-2-2v-2c0-1.1.9-2 2-2h4z"/><circle cx="15" cy="55" r="2"/><circle cx="51" cy="55" r="2"/></g><path d="m60 39.71v4.29h-2c-1.1 0-2-.9-2-2v-2c0-1.1.9-2 2-2h1.75c.16.55.25 1.12.25 1.71z" fill="#fc6e51"/><path d="m60 44v4h-8v-12-2-6c0-1.1-.9-2-2-2h-12c-1.1 0-2 .9-2 2v8 4 8h-4v-20c0-3.31 2.69-6 6-6h11.48c3.12 0 5.72 2.39 5.98 5.5l.54 6.5.68.34c1.51.76 2.6 2.09 3.07 3.66h-1.75c-1.1 0-2 .9-2 2v2c0 1.1.9 2 2 2z" fill="#b4dd7f"/><path d="m36 40v-4h12 4v12h-1-15z" fill="#a0d468"/><path d="m52 28v6c0-1.1-.9-2-2-2h-2c-.55 0-1.05.22-1.41.59-.37.36-.59.86-.59 1.41 0 1.1.9 2 2 2h-12v-8c0-1.1.9-2 2-2h12c1.1 0 2 .9 2 2z" fill="#69d6f4"/><path d="m52 34v2h-4c-1.1 0-2-.9-2-2 0-.55.22-1.05.59-1.41.36-.37.86-.59 1.41-.59h2c1.1 0 2 .9 2 2z" fill="#ccd1d9"/><path d="m6 46v-12c0-1.1.9-2 2-2h6v6h6v-6h6c1.1 0 2 .9 2 2v12c0 1.1-.9 2-2 2h-11-7c-1.1 0-2-.9-2-2z" fill="#cf9e76"/><path d="m20 32v6h-6v-6h3z" fill="#fcd770"/><path d="m25.75 6.25c1.41 1.84 2.25 4.14 2.25 6.63 0 2.04-.57 4.04-1.65 5.77l-7.82 12.5c-.33.53-.91.85-1.53.85s-1.2-.32-1.53-.85l-7.82-12.5c-1.08-1.73-1.65-3.73-1.65-5.77 0-6.01 4.87-10.88 10.88-10.88h.24c3 0 5.72 1.22 7.69 3.19.33.33.65.69.94 1.06z" fill="#ff826e"/><path d="m22.85 9.15c.73 1.1 1.15 2.42 1.15 3.85 0 3.87-3.13 7-7 7s-7-3.13-7-7 3.13-7 7-7c2.44 0 4.59 1.25 5.85 3.15z" fill="#fcd770"/><path d="m51 52c-1.654 0-3 1.346-3 3s1.346 3 3 3 3-1.346 3-3-1.346-3-3-3zm0 4c-.552 0-1-.449-1-1s.448-1 1-1 1 .449 1 1-.448 1-1 1z"/><path d="m15 52c-1.654 0-3 1.346-3 3s1.346 3 3 3 3-1.346 3-3-1.346-3-3-3zm0 4c-.552 0-1-.449-1-1s.448-1 1-1 1 .449 1 1-.448 1-1 1z"/><path d="m61 47.184v-7.476c0-2.668-1.482-5.067-3.869-6.261l-.181-.09-.496-5.938c-.299-3.6-3.363-6.419-6.975-6.419h-11.479c-3.859 0-7 3.14-7 7v19h-2.184c.112-.314.184-.648.184-1v-12c0-1.654-1.346-3-3-3h-6.196l7.39-11.824c1.182-1.891 1.806-4.068 1.806-6.296 0-2.404-.723-4.639-1.955-6.511l2.662-2.662-1.414-1.414-2.497 2.497c-2.17-2.325-5.252-3.79-8.676-3.79h-.24c-6.551 0-11.88 5.329-11.88 11.88 0 2.229.624 4.405 1.806 6.296l7.39 11.824h-6.196c-1.654 0-3 1.346-3 3v12c0 .352.072.686.184 1h-1.184c-1.654 0-3 1.346-3 3v2c0 1.654 1.346 3 3 3h3c0 4.411 3.589 8 8 8 3.814 0 7.007-2.684 7.804-6.261l1.696 2.261h17l1.696-2.261c.797 3.577 3.99 6.261 7.804 6.261 4.411 0 8-3.589 8-8h1c1.654 0 3-1.346 3-3v-2c0-1.302-.839-2.402-2-2.816zm-54-34.304c0-5.448 4.432-9.88 9.88-9.88h.24c2.873 0 5.455 1.24 7.262 3.204l-1.449 1.449c-1.465-1.624-3.579-2.653-5.933-2.653-4.411 0-8 3.589-8 8s3.589 8 8 8 8-3.589 8-8c0-1.328-.33-2.578-.905-3.681l1.497-1.497c.888 1.482 1.408 3.208 1.408 5.058 0 1.853-.52 3.664-1.501 5.236l-7.816 12.505c-.297.474-1.068.473-1.365 0l-7.817-12.505c-.981-1.572-1.501-3.383-1.501-5.236zm10 3.534 5.587-5.587c.263.675.413 1.406.413 2.173 0 3.309-2.691 6-6 6s-6-2.691-6-6 2.691-6 6-6c1.803 0 3.419.803 4.52 2.066l-4.52 4.52-2.293-2.293-1.414 1.414zm42 23.294v3.292h-1c-.552 0-1-.449-1-1v-2c0-.551.448-1 1-1h.95c.033.232.05.469.05.708zm-26-11.708c0-2.757 2.243-5 5-5h11.479c2.58 0 4.768 2.014 4.982 4.585l.588 7.058 1.187.593c.823.411 1.491 1.026 1.966 1.764h-.202c-1.654 0-3 1.346-3 3v2c0 1.654 1.346 3 3 3h1v2h-6v-10-3-6c0-1.654-1.346-3-3-3h-12c-1.654 0-3 1.346-3 3v19h-2zm10.263 25h-20.526c-.407-1.573-1.278-2.957-2.463-4h5.726 19.726c-1.184 1.043-2.056 2.427-2.463 4zm3.737-19c0-.551.448-1 1-1h2c.552 0 1 .449 1 1v1h-3c-.552 0-1-.449-1-1zm4-2.816c-.314-.112-.648-.184-1-.184h-2c-1.654 0-3 1.346-3 3 0 .352.072.686.184 1h-8.184v-7c0-.551.448-1 1-1h12c.552 0 1 .449 1 1zm-14 15.816v-6h4v-2h-4v-2h11 3v10zm-22-14h4v4h-4zm-8 13v-12c0-.551.448-1 1-1h5v6h8v-6h5c.552 0 1 .449 1 1v12c0 .551-.448 1-1 1h-18c-.552 0-1-.449-1-1zm-3 7c-.552 0-1-.449-1-1v-2c0-.551.448-1 1-1h4 1.726c-1.185 1.043-2.056 2.427-2.463 4zm11 8c-3.309 0-6-2.691-6-6s2.691-6 6-6 6 2.691 6 6-2.691 6-6 6zm25.5-4h-15l-1.5-2h18zm10.5 4c-3.309 0-6-2.691-6-6s2.691-6 6-6 6 2.691 6 6-2.691 6-6 6zm10-9c0 .551-.448 1-1 1h-1.263c-.407-1.573-1.278-2.957-2.463-4h3.726c.552 0 1 .449 1 1z"/><path d="m9 43h2v2h-2z"/><path d="m13 43h2v2h-2z"/><path d="m17 43h2v2h-2z"/><path d="m14 23h2v2h-2z"/><path d="m18 23h2v2h-2z"/></svg>