<svg id="icons" enable-background="new 0 0 64 64" height="512" viewBox="0 0 64 64" width="512" xmlns="http://www.w3.org/2000/svg"><path d="m26.01 13.5v12.99h-2-6-6-2v-12.99h6v4.01h4v-4.01z" fill="#ffce54"/><path d="m16.01 13.5h4v4.01h-4z" fill="#e6e9ed"/><path d="m10.01 26.5h2v4h-4v-4.01h2z" fill="#e6e9ed"/><path d="m34.01 26.49v13h-16v-12.99h6v4h4v-4.01z" fill="#ffce54"/><path d="m28.01 26.49v4.01h-4v-4h2v-.01z" fill="#e6e9ed"/><path d="m18.01 26.5v12.99h-16v-13h6v4.01h4v-4z" fill="#ffce54"/><path d="m61 43.49v14h-58v-14zm-12.99 10.02v-6h-32.03v6z" fill="#844747"/><path d="m15.98 47.51h32.029v6h-32.029z" fill="#ffce54"/><path d="m63 39.49v4h-2-58-2v-4h1.01 16 16 3 24z" fill="#965353"/><path d="m53.01 28.56v3.94l-2 2-2-1-2 1-2-2v-3.94c1.2.601 2.561.94 4 .94 1.44 0 2.8-.34 4-.94z" fill="#ffce54"/><path d="m58.01 15.51v1.08c-1.27-.88-3.93-2.08-9-2.08-5.01 0-7.67 1.17-8.96 2.05l-.04-.05v-1c0-4.97 4.03-9 9.01-9 4.97 0 8.99 4.03 8.99 9z" fill="#ed5565"/><path d="m49.02 6.51c-.514 0-1.013.053-1.503.135 4.166.701 7.348 4.26 7.477 8.594 1.423.407 2.391.918 3.017 1.352v-1.08c-.001-4.971-4.021-9.001-8.991-9.001z" fill="#da4453"/><path d="m58.01 16.59c.73.51 1 .91 1 .91h-1-18-1s.28-.42 1.04-.94c1.29-.88 3.95-2.05 8.96-2.05 5.07 0 7.73 1.2 9 2.08z" fill="#ffce54"/><path d="m58.01 17.5v3c0 3.529-2.04 6.59-5 8.06-1.2.601-2.56.94-4 .94-1.439 0-2.8-.34-4-.94-2.95-1.46-4.979-4.5-5-8.01v-.05-3z" fill="#eac6bb"/><path d="m55.007 17.5v3c0 3.529-2.04 6.59-5 8.06-.772.387-1.615.65-2.498.8.489.083.987.141 1.501.141 1.44 0 2.8-.34 4-.94 2.96-1.47 5-4.53 5-8.06v-3h-3.003z" fill="#d3b1a9"/><path d="m61.01 39.49h-24v-1.99c0-2.771 2.24-5 5-5h3l2 2 2-1 2 1 2-2h3c2.771 0 5 2.229 5 5z" fill="#ed5565"/><path d="m56.01 32.5h-3c2.769.002 4.997 2.23 4.997 5v1.99h3.003v-1.99c0-2.771-2.23-5-5-5z" fill="#da4453"/><path d="m61 58.492c-.553 0-1-.447-1-1v-14.002c0-.553.447-1 1-1s1 .447 1 1v14.002c0 .553-.447 1-1 1z"/><path d="m3 58.492c-.553 0-1-.447-1-1v-14.002c0-.553.447-1 1-1s1 .447 1 1v14.002c0 .553-.447 1-1 1z"/><path d="m63 44.49h-62c-.553 0-1-.447-1-1v-4c0-.553.447-1 1-1h62c.553 0 1 .447 1 1v4c0 .553-.447 1-1 1zm-61-2h60v-2h-60z"/><path d="m37.017 38.495c-.553 0-1-.447-1-1 0-3.309 2.691-6 6-6 .553 0 1 .447 1 1s-.447 1-1 1c-2.206 0-4 1.794-4 4 0 .553-.448 1-1 1z"/><path d="m45.017 33.495h-3c-.553 0-1-.447-1-1s.447-1 1-1h3c.553 0 1 .447 1 1s-.448 1-1 1z"/><path d="m37.017 40.493c-.553 0-1-.447-1-1v-1.998c0-.553.447-1 1-1s1 .447 1 1v1.998c0 .553-.448 1-1 1z"/><path d="m61.017 38.495c-.553 0-1-.447-1-1 0-2.206-1.794-4-4-4-.553 0-1-.447-1-1s.447-1 1-1c3.309 0 6 2.691 6 6 0 .553-.448 1-1 1z"/><path d="m56.017 33.495h-3c-.553 0-1-.447-1-1s.447-1 1-1h3c.553 0 1 .447 1 1s-.448 1-1 1z"/><path d="m61.017 40.493c-.553 0-1-.447-1-1v-1.998c0-.553.447-1 1-1s1 .447 1 1v1.998c0 .553-.448 1-1 1z"/><path d="m45.017 33.495c-.553 0-1-.447-1-1v-3.935c0-.553.447-1 1-1s1 .447 1 1v3.936c0 .552-.448.999-1 .999z"/><path d="m53.017 33.495c-.553 0-1-.447-1-1v-3.935c0-.553.447-1 1-1s1 .447 1 1v3.936c0 .552-.448.999-1 .999z"/><path d="m49.016 30.495c-5.514 0-9.999-4.485-9.999-9.998 0-.553.447-1 1-1s1 .447 1 1c0 4.41 3.588 7.998 7.999 7.998 4.412 0 8.001-3.588 8.001-7.998 0-.553.447-1 1-1s1 .447 1 1c0 5.513-4.487 9.998-10.001 9.998z"/><path d="m58.017 16.506c-.553 0-1-.447-1-1 0-4.41-3.588-7.998-7.999-7.998-4.412 0-8.001 3.588-8.001 7.998 0 .553-.447 1-1 1s-1-.447-1-1c0-5.513 4.486-9.998 10.001-9.998 5.514 0 9.999 4.485 9.999 9.998 0 .553-.448 1-1 1z"/><path d="m40.017 21.546c-.553 0-1-.447-1-1v-3.048c0-.553.447-1 1-1s1 .447 1 1v3.048c0 .553-.448 1-1 1z"/><path d="m58.017 21.497c-.553 0-1-.447-1-1v-2.999c0-.553.447-1 1-1s1 .447 1 1v2.999c0 .553-.448 1-1 1z"/><path d="m47.017 35.495c-.256 0-.512-.098-.707-.293l-2-2c-.391-.391-.391-1.023 0-1.414s1.023-.391 1.414 0l2 2c.391.391.391 1.023 0 1.414-.196.195-.452.293-.707.293z"/><path d="m47.018 35.495c-.367 0-.72-.202-.896-.553-.247-.494-.047-1.095.447-1.342l2-1c.494-.245 1.095-.047 1.342.447s.047 1.095-.447 1.342l-2 1c-.144.072-.296.106-.446.106z"/><path d="m51.017 35.495c-.256 0-.512-.098-.707-.293-.391-.391-.391-1.023 0-1.414l2-2c.391-.391 1.023-.391 1.414 0s.391 1.023 0 1.414l-2 2c-.196.195-.452.293-.707.293z"/><path d="m51.016 35.495c-.15 0-.303-.034-.446-.105l-2-1c-.494-.247-.694-.848-.447-1.342.248-.494.849-.692 1.342-.447l2 1c.494.247.694.848.447 1.342-.177.35-.529.552-.896.552z"/><path d="m59.017 18.497h-20c-.553 0-1-.447-1-1s.447-1 1-1h20c.553 0 1 .447 1 1s-.448 1-1 1z"/><path d="m59.018 18.497c-.322 0-.639-.155-.832-.443-.007-.009-1.947-2.543-9.169-2.543-7.263 0-9.152 2.518-9.169 2.543-.308.459-.93.582-1.388.274-.459-.308-.582-.929-.274-1.388.235-.351 2.537-3.43 10.831-3.43s10.596 3.079 10.831 3.43c.308.459.185 1.08-.274 1.388-.172.114-.365.169-.556.169z"/><path d="m58.017 17.591c-.553 0-1-.447-1-1v-1.085c0-.553.447-1 1-1s1 .447 1 1v1.085c0 .553-.448 1-1 1z"/><path d="m40.017 17.508c-.553 0-1-.447-1-1v-1.002c0-.553.447-1 1-1s1 .447 1 1v1.002c0 .553-.448 1-1 1z"/><path d="m18.015 40.49h-16c-.553 0-1-.447-1-1v-12.999c0-.553.447-1 1-1h16c.553 0 1 .447 1 1v12.999c0 .553-.448 1-1 1zm-15-2h14v-10.999h-14z"/><path d="m34.016 40.49h-16.001c-.553 0-1-.447-1-1v-12.999c0-.553.447-1 1-1h16.001c.553 0 1 .447 1 1v12.999c0 .553-.448 1-1 1zm-15.001-2h14.001v-10.999h-14.001z"/><path d="m26.016 27.502h-16.001c-.553 0-1-.447-1-1v-12.999c0-.553.447-1 1-1h16.001c.553 0 1 .447 1 1v12.999c0 .553-.448 1-1 1zm-15.001-2h14.001v-10.999h-14.001z"/><path d="m16.017 18.505c-.553 0-1-.447-1-1v-4.002c0-.553.447-1 1-1s1 .447 1 1v4.002c0 .553-.448 1-1 1z"/><path d="m20.017 18.505h-4c-.553 0-1-.447-1-1s.447-1 1-1h4c.553 0 1 .447 1 1s-.448 1-1 1z"/><path d="m20.017 18.505c-.553 0-1-.447-1-1v-4.002c0-.553.447-1 1-1s1 .447 1 1v4.002c0 .553-.448 1-1 1z"/><path d="m24.016 31.494c-.553 0-1-.447-1-1v-4.002c0-.553.447-1 1-1s1 .447 1 1v4.002c0 .553-.448 1-1 1z"/><path d="m28.016 31.494h-4c-.553 0-1-.447-1-1s.447-1 1-1h4c.553 0 1 .447 1 1s-.448 1-1 1z"/><path d="m28.016 31.494c-.553 0-1-.447-1-1v-4.002c0-.553.447-1 1-1s1 .447 1 1v4.002c0 .553-.448 1-1 1z"/><path d="m8.015 31.494c-.553 0-1-.447-1-1v-4.002c0-.553.447-1 1-1s1 .447 1 1v4.002c0 .553-.448 1-1 1z"/><path d="m12.015 31.494h-4c-.553 0-1-.447-1-1s.447-1 1-1h4c.553 0 1 .447 1 1s-.448 1-1 1z"/><path d="m12.015 31.494c-.553 0-1-.447-1-1v-4.002c0-.553.447-1 1-1s1 .447 1 1v4.002c0 .553-.448 1-1 1z"/><path d="m48.017 54.51h-32.034c-.553 0-1-.447-1-1v-6.002c0-.553.447-1 1-1h32.033c.553 0 1 .447 1 1v6.002c.001.553-.447 1-.999 1zm-31.034-2h30.033v-4.002h-30.033z"/><path d="m42.017 51.509h-20.001c-.553 0-1-.447-1-1s.447-1 1-1h20.001c.553 0 1 .447 1 1s-.448 1-1 1z"/></svg>