<?xml version="1.0" encoding="iso-8859-1"?>
<!-- Generator: Adobe Illustrator 19.0.0, SVG Export Plug-In . SVG Version: 6.00 Build 0)  -->
<svg xmlns="http://www.w3.org/2000/svg" xmlns:xlink="http://www.w3.org/1999/xlink" version="1.1" id="Layer_1" x="0px" y="0px" viewBox="0 0 504.66 504.66" style="enable-background:new 0 0 504.66 504.66;" xml:space="preserve" width="512" height="512">
<g>
	<g>
		<g>
			<path style="fill:#E06919;" d="M97.585,125.204h207.768c19.741,0,35.744,16.003,35.744,35.744v3.151     c0,19.741-16.003,35.744-35.744,35.744H97.585c-19.741,0-35.744-16.003-35.744-35.744v-3.151     C61.841,141.207,77.844,125.204,97.585,125.204z"/>
			<path style="fill:#FFCBB3;" d="M364.125,238.494c0,20.455-15.753,37.218-35.784,38.821c-1.045,0.089-2.107,0.133-3.17,0.133     c-2.727,0-5.384-0.275-7.952-0.815H82.596c-2.568,0.54-5.225,0.815-7.952,0.815h-0.027     c-21.509-0.018-38.927-17.444-38.927-38.953c0-20.278,15.496-36.934,35.296-38.768c1.204-0.124,2.426-0.177,3.657-0.177     c1.638,0,3.241,0.097,4.826,0.292h240.876c1.585-0.195,3.188-0.292,4.826-0.292c2.311,0,4.578,0.204,6.774,0.593     C350.231,203.34,364.125,219.296,364.125,238.494z"/>
			<path style="fill:#E89876;" d="M331.946,200.143v49.34c0,9.581-1.248,18.906-3.604,27.832c-1.045,0.089-2.107,0.133-3.17,0.133     c-2.727,0-5.384-0.275-7.952-0.815H82.596c-2.568,0.54-5.225,0.815-7.952,0.815h-0.027c-2.373-8.97-3.63-18.33-3.63-27.964     v-49.757c1.204-0.124,2.426-0.177,3.657-0.177c1.638,0,3.241,0.097,4.826,0.292h240.876c1.585-0.195,3.188-0.292,4.826-0.292     C327.483,199.55,329.75,199.753,331.946,200.143z"/>
			<path style="fill:#27394C;" d="M320.344,445.934v50.394H82.594v-50.394c0-65.652,53.219-118.879,118.871-118.879     c9.289,0,18.33,1.071,27.008,3.082c21.987,5.109,41.628,16.32,57.053,31.737C307.035,383.39,320.344,413.108,320.344,445.934z"/>
			<path style="fill:#3E5268;" d="M320.344,445.934v50.394H136.61v-50.394c0-56.363,39.228-103.569,91.863-115.798     c21.987,5.109,41.628,16.32,57.053,31.737C307.035,383.39,320.344,413.108,320.344,445.934z"/>
			<polyline style="fill:#FFFFFF;" points="143.413,367.174 201.465,484.979 259.516,367.174    "/>
			<polyline style="fill:#FC74AF;" points="150.44,373.233 201.465,438.409 252.489,373.233    "/>
			<polyline style="fill:#BBB8CC;" points="259.316,367.588 232.848,421.299 201.466,387.137 201.468,387.137 170.085,421.299      143.617,367.588    "/>
			<path style="fill:#172635;" d="M201.468,484.979v11.35h-29.2l-30.44-30.44l12.71-26.39h-29.33l-15.03-69.69     c6.9-8.29,14.92-15.61,23.82-21.75L201.468,484.979z"/>
			<path style="fill:#172635;" d="M201.461,484.979v11.35h29.2l30.44-30.44l-12.71-26.39h29.33l15.03-69.69     c-6.9-8.29-14.92-15.61-23.82-21.75L201.461,484.979z"/>
			<path style="fill:#E89876;" d="M320.344,182.291v80.953c0,57.93-41.442,106.181-96.299,116.728     c-7.305,1.408-14.859,2.143-22.58,2.143c-65.652,0-118.871-53.219-118.871-118.871v-80.953     c0-65.651,53.219-118.879,118.871-118.879c7.722,0,15.275,0.735,22.58,2.143c23.776,4.569,45.028,16.223,61.481,32.675     C307.035,119.748,320.344,149.465,320.344,182.291z"/>
			<path style="fill:#FFCBB3;" d="M320.344,182.291v80.953c0,57.93-41.442,106.181-96.299,116.728     c-54.857-10.547-96.299-58.798-96.299-116.728v-80.953c0-57.93,41.442-106.19,96.299-116.736     c23.776,4.569,45.028,16.223,61.481,32.675C307.035,119.748,320.344,149.465,320.344,182.291z"/>
			<path style="fill:#F9A74D;" d="M313.276,7.5l-53.33,53.33c-4.517-11.093-15.392-18.921-28.108-18.921     c-10.435,0-19.636,5.269-25.099,13.289c-13.937-17.17-35.204-28.145-59.045-28.145c-42.002,0-76.052,34.05-76.052,76.052     s34.05,76.052,76.052,76.052c17.546,0,33.692-5.958,46.56-15.939c37.768,21.646,86.764,16.361,119.023-15.897     C351.887,108.709,351.887,46.11,313.276,7.5z"/>
			<path style="fill:#E06919;" d="M117.279,103.105c0,34.048,22.377,62.878,53.224,72.566c-7.187,2.268-14.857,3.485-22.81,3.485     c-42.002,0-76.05-34.048-76.05-76.05s34.049-76.05,76.05-76.05c7.953,0,15.607,1.217,22.81,3.485     C139.655,40.227,117.279,69.056,117.279,103.105z"/>
			<polygon style="fill:#FC74AF;" points="215.545,456.399 201.465,484.979 187.385,456.399 201.465,438.409    "/>
		</g>
		<path style="fill:#DD3352;" d="M468.93,413.909c0,42.22-31.43,77.1-72.17,82.51c-3.62,0.49-7.32,0.74-11.08,0.74    c-45.98,0-83.25-37.27-83.25-83.25c0-45.97,37.27-83.24,83.25-83.24c3.76,0,7.46,0.25,11.08,0.74    C437.5,336.819,468.93,371.699,468.93,413.909z"/>
		<path style="fill:#FC74AF;" d="M468.93,413.909c0,42.22-31.43,77.1-72.17,82.51c-40.74-5.41-72.17-40.29-72.17-82.51    s31.43-77.09,72.17-82.5C437.5,336.819,468.93,371.699,468.93,413.909z"/>
	</g>
	<g>
		<path d="M149.197,314.225c2.929,2.929,7.678,2.929,10.606,0c22.974-22.974,60.355-22.974,83.329,0    c1.464,1.464,3.384,2.197,5.303,2.197s3.839-0.732,5.303-2.197c2.929-2.929,2.929-7.678,0-10.606    c-28.822-28.822-75.72-28.822-104.542,0C146.268,306.547,146.268,311.296,149.197,314.225z"/>
		<path d="M149.681,254.715c4.142,0,7.5-3.358,7.5-7.5v-29.221c0-4.142-3.358-7.5-7.5-7.5s-7.5,3.358-7.5,7.5v29.221    C142.181,251.357,145.539,254.715,149.681,254.715z"/>
		<path d="M253.257,254.715c4.143,0,7.5-3.358,7.5-7.5v-29.221c0-4.142-3.357-7.5-7.5-7.5c-4.142,0-7.5,3.358-7.5,7.5v29.221    C245.757,251.357,249.115,254.715,253.257,254.715z"/>
		<path d="M385.679,323.165c-35.339,0-66.021,20.306-81,49.861c-4.133-5.844-8.755-11.355-13.853-16.46    c-0.668-0.668-1.346-1.329-2.032-1.984c19.198-18.393,32.489-42.695,37.18-69.652c25.243-0.434,45.648-21.089,45.648-46.433    c0-21.535-14.737-39.689-34.656-44.922c7.321-7.876,11.628-18.37,11.628-29.474v-3.15c0-11.621-4.713-22.673-12.849-30.73    c9.125-15.903,13.988-33.982,13.988-52.81c0-28.412-11.064-55.123-31.154-75.213C317.173,0.79,315.265,0,313.276,0    s-3.896,0.79-5.304,2.197l-17.796,17.797c-2.929,2.929-2.929,7.678,0.001,10.606c2.928,2.93,7.677,2.928,10.606,0l12.279-12.28    c14.025,16.489,21.671,37.202,21.671,59.09c0,24.405-9.504,47.35-26.762,64.606c-29.093,29.093-74.323,35.134-109.989,14.694    c-2.637-1.512-5.925-1.283-8.326,0.581c-12.116,9.398-26.626,14.366-41.963,14.366c-37.8,0-68.552-30.752-68.552-68.551    c0-37.8,30.752-68.552,68.552-68.552c20.735,0,40.134,9.248,53.222,25.372c1.494,1.84,3.763,2.861,6.138,2.767    c2.368-0.099,4.55-1.312,5.884-3.271c4.27-6.269,11.336-10.011,18.9-10.011c9.331,0,17.638,5.593,21.163,14.25    c0.948,2.327,2.998,4.025,5.461,4.523c2.462,0.497,5.012-0.271,6.789-2.048l15.171-15.171c2.929-2.929,2.929-7.678-0.001-10.606    c-2.928-2.93-7.677-2.929-10.606,0l-8.342,8.342c-7.053-8.907-17.85-14.289-29.634-14.289c-9.375,0-18.286,3.467-25.138,9.557    c-15.604-15.61-36.668-24.413-59.006-24.413c-46.071,0-83.552,37.481-83.552,83.552c0,9.089,1.479,17.834,4.174,26.032    c-8.829,8.135-13.972,19.65-13.972,31.812v3.15c0,10.828,4.097,21.073,11.088,28.879c-21.196,4.301-37.199,23.075-37.199,45.517    c0,25.614,20.839,46.453,46.454,46.453c0.76,0,1.517-0.021,2.272-0.058c4.707,27.161,18.109,51.378,37.231,69.665    c-24.942,23.809-39.097,56.649-39.097,91.385v50.39c0,4.142,3.358,7.5,7.5,7.5h237.75c4.143,0,7.5-3.358,7.5-7.5v-12.54    c15.714,13.029,35.876,20.871,57.836,20.871c3.267,0,6.563-0.176,9.796-0.523c4.118-0.442,7.099-4.14,6.656-8.258    c-0.441-4.119-4.143-7.1-8.258-6.656c-2.703,0.291-5.461,0.438-8.194,0.438c-41.768,0-75.748-33.98-75.748-75.748    s33.98-75.748,75.748-75.748c41.767,0,75.747,33.98,75.747,75.748c0,29.719-17.507,56.831-44.601,69.07    c-3.774,1.705-5.452,6.147-3.747,9.922c1.705,3.774,6.145,5.454,9.923,3.748c32.454-14.661,53.425-47.138,53.425-82.74    C476.427,363.874,435.718,323.165,385.679,323.165z M280.218,367.169c1.523,1.525,2.986,3.102,4.414,4.706L271.667,432H248.4    c-2.58,0-4.978,1.326-6.35,3.51c-1.373,2.184-1.526,4.92-0.407,7.244l10.397,21.594l-24.481,24.481H207.88    c0.106-0.177,0.22-0.348,0.312-0.535l31.36-63.64c0.007-0.014,0.016-0.026,0.023-0.04l25.773-52.3    c4.139-2.429,8.122-5.082,11.932-7.945C278.275,365.29,279.265,366.217,280.218,367.169z M213.308,411.114l-11.843,15.128    l-11.842-15.126l11.844-12.892L213.308,411.114z M214.096,442.379l-3.107-3.969l12.604-16.099l0.255,0.278L214.096,442.379z     M230.962,408.159l-17.549-19.103c4.052-0.382,8.079-0.956,12.051-1.721c6.256-1.202,12.329-2.863,18.192-4.934L230.962,408.159z     M171.971,408.159l-12.713-25.799c9.611,3.416,19.753,5.7,30.267,6.69L171.971,408.159z M179.338,422.312l12.602,16.097    l-3.107,3.969l-9.751-19.788L179.338,422.312z M201.465,450.578l5.272,6.736l-5.272,10.698l-5.272-10.698L201.465,450.578z     M356.623,238.496c0,16.501-12.775,30.065-28.952,31.345c0.114-2.186,0.178-4.382,0.178-6.592v-25.745    c3.034,0.186,6.491,1.317,8.158,5.152c1.229,2.825,3.986,4.512,6.882,4.512c0.998,0,2.013-0.201,2.986-0.624    c3.799-1.651,5.539-6.07,3.888-9.868c-4.615-10.613-13.943-13.88-21.914-14.162v-15.341    C343.942,208.538,356.623,222.06,356.623,238.496z M333.594,160.949v3.15c0,6.271-2.108,12.24-5.768,17.068    c-0.099-11.346-1.69-22.531-4.754-33.328c1.402-1.582,2.755-3.197,4.053-4.847C331.249,147.997,333.594,154.331,333.594,160.949z     M79.091,150.714c-2.551,9.903-3.883,20.126-3.973,30.459c-3.663-4.829-5.773-10.801-5.773-17.075v-3.15    c0-6.142,2.015-12.029,5.591-16.844C76.221,146.376,77.606,148.581,79.091,150.714z M74.687,269.948    c-17.344,0-31.454-14.11-31.454-31.453c0-17.339,14.11-31.445,31.454-31.445c0.14,0,0.273,0.01,0.411,0.012v15.428    c-11.04,0.586-17.993,7.178-21.042,14.181c-1.653,3.798,0.085,8.217,3.883,9.871c0.975,0.424,1.991,0.625,2.99,0.625    c2.895,0,5.652-1.686,6.881-4.508c1.499-3.444,4.382-4.751,7.288-5.091v25.682c0,2.242,0.061,4.47,0.177,6.684    C75.079,269.937,74.884,269.948,74.687,269.948z M90.098,263.249v-80.96c0-5.868,0.471-11.693,1.374-17.433    c14.854,13.535,34.59,21.8,56.222,21.8c17.036,0,33.235-5.027,47.151-14.587c15.289,7.847,31.893,11.674,48.41,11.673    c24.106-0.001,48.016-8.16,67.315-23.885c1.505,7.339,2.278,14.844,2.278,22.432v80.96c0,33.925-15.375,64.865-40.014,85.486    c-0.006,0.005-0.011,0.01-0.017,0.014c-14.083,11.781-31.181,20.203-50.189,23.856c-6.931,1.336-14.05,2.014-21.16,2.014    C140.058,374.619,90.098,324.659,90.098,263.249z M137.535,372.212l25.823,52.401c0,0,0,0,0,0l-0.001,0l31.38,63.68    c0.092,0.187,0.206,0.358,0.312,0.535H175.37l-24.481-24.481l10.397-21.594c1.119-2.324,0.965-5.061-0.407-7.244    c-1.372-2.184-3.771-3.51-6.35-3.51h-23.266l-12.966-60.13c2.336-2.619,4.798-5.143,7.395-7.553    C129.48,367.163,133.435,369.798,137.535,372.212z M90.094,445.939c0-20.777,5.746-40.788,16.31-58.063l11.473,53.204    c0.745,3.454,3.799,5.919,7.332,5.919h17.386l-7.528,15.635c-1.383,2.872-0.8,6.304,1.454,8.557l17.638,17.638H90.094V445.939z     M312.844,467.982v20.847h-64.072l17.638-17.638c2.253-2.253,2.836-5.686,1.454-8.557L260.336,447h17.386    c3.533,0,6.587-2.465,7.331-5.919l11.468-53.183c0.51,0.835,1.013,1.674,1.501,2.522c-2.011,7.497-3.09,15.371-3.09,23.493    C294.931,434.156,301.596,452.871,312.844,467.982z"/>
		<path d="M341.49,458.101c1.465,1.464,3.385,2.197,5.304,2.197s3.839-0.732,5.304-2.197l33.582-33.582l33.582,33.582    c1.465,1.464,3.385,2.197,5.304,2.197s3.839-0.732,5.304-2.197c2.929-2.929,2.929-7.678,0-10.606l-33.582-33.582l33.582-33.582    c2.929-2.929,2.929-7.678,0-10.606c-2.93-2.929-7.678-2.929-10.607,0l-33.582,33.582l-33.582-33.582    c-2.93-2.929-7.678-2.929-10.607,0c-2.929,2.929-2.929,7.678,0,10.606l33.582,33.582l-33.582,33.582    C338.561,450.423,338.561,455.172,341.49,458.101z"/>
	</g>
</g>















</svg>
