<?xml version="1.0" encoding="iso-8859-1"?>
<!-- Generator: Adobe Illustrator 19.0.0, SVG Export Plug-In . SVG Version: 6.00 Build 0)  -->
<svg version="1.1" id="Capa_1" xmlns="http://www.w3.org/2000/svg" xmlns:xlink="http://www.w3.org/1999/xlink" x="0px" y="0px"
	 viewBox="0 0 512 512" style="enable-background:new 0 0 512 512;" xml:space="preserve">
<path style="fill:#ABB53C;" d="M374.56,278.696c-0.104-0.08-0.205-0.162-0.31-0.241l14.81-25.772l-0.656-1.142h-11.402
	c-2.166,0-3.057-1.534-1.979-3.41l13.638-23.73l-16.64-28.955h12.717c2.166,0,3.055-1.535,1.977-3.41l-40.229-70.001
	c-1.076-1.875-2.842-1.875-3.918,0l-40.229,70.001c-1.078,1.875-0.188,3.41,1.979,3.41h12.715l-26.006,45.252
	C321.914,247.045,350.313,260.275,374.56,278.696z"/>
<path style="fill:#FFFFFF;" d="M385.559,229.799l3.103-5.398l-16.64-28.955h12.717c2.166,0,3.055-1.535,1.977-3.41l-40.229-70.001
	c-1.076-1.875-2.842-1.875-3.918,0l-40.229,70.001c-1.078,1.875-0.188,3.41,1.979,3.41h12.715l-19.485,33.907
	c1.684,0.525,3.474,0.809,5.331,0.809c5.892,0,11.117-2.851,14.375-7.247c3.257,4.396,8.482,7.247,14.372,7.247
	c5.892,0,11.116-2.851,14.374-7.247c3.258,4.396,8.482,7.247,14.374,7.247c5.891,0,11.116-2.851,14.373-7.247
	C377.329,226.399,381.151,228.907,385.559,229.799z"/>
<path style="fill:#ABB53C;" d="M112.217,288.063l8.559-14.894H106.74c-2.166,0-3.055-1.534-1.976-3.41l23.332-40.6l-5.442-9.47
	h-1.032c-2.166,0-3.055-1.535-1.979-3.41l8.853-15.404l-31.749-55.244c-1.076-1.875-2.84-1.875-3.918,0L52.6,215.633
	c-1.076,1.875-0.188,3.41,1.978,3.41h12.715l-29.574,51.462c-1.076,1.875-0.188,3.41,1.979,3.41h11.916L22.84,323.984
	c-1.078,1.876-0.189,3.41,1.977,3.41h14.035L7.959,381.151c-1.078,1.876-0.19,3.409,1.977,3.409h40.178
	c11.642-38.84,34.382-72.928,64.523-98.581C113.826,286.67,113.017,287.361,112.217,288.063z"/>
<path style="fill:#FFFFFF;" d="M113.535,254.495l14.561-25.335l-5.442-9.47h-1.032c-2.166,0-3.055-1.535-1.979-3.41l8.853-15.404
	l-31.749-55.244c-1.076-1.875-2.84-1.875-3.918,0L52.6,215.633c-1.076,1.875-0.188,3.41,1.978,3.41h12.715L47.135,254.12
	c4.428-1.319,8.249-4.049,10.935-7.673c3.844,5.189,10.011,8.554,16.964,8.554c6.954,0,13.121-3.365,16.966-8.554
	c3.845,5.189,10.012,8.554,16.966,8.554C110.536,255.001,112.063,254.821,113.535,254.495z"/>
<path style="fill:#5E9900;" d="M106.74,273.17h14.035l-8.559,14.894c32.088-28.165,72.903-46.615,117.812-50.726l-10.142-17.647
	h11.916c0.27,0,0.521-0.023,0.75-0.069c1.605-0.319,2.172-1.701,1.227-3.341l-8.911-15.506c-0.017,0-0.032,0.002-0.048,0.002
	c-6.953,0-13.121-3.365-16.966-8.554c-3.844,5.189-10.012,8.554-16.965,8.554c-6.954,0-13.121-3.365-16.966-8.554
	c-3.845,5.189-10.012,8.554-16.966,8.554c-6.953,0-13.12-3.365-16.965-8.554c-2.686,3.624-6.507,6.354-10.935,7.673l-9.416,16.385
	c-1.076,1.875-0.188,3.41,1.979,3.41h11.916l-28.773,50.069C103.686,271.636,104.574,273.17,106.74,273.17z"/>
<path id="SVGCleanerId_0" style="fill:#FFFFFF;" d="M139.993,192.223c3.845,5.189,10.012,8.554,16.965,8.554
	c6.954,0,13.121-3.365,16.966-8.554c3.845,5.189,10.012,8.554,16.966,8.554c6.953,0,13.121-3.365,16.965-8.554
	c3.845,5.189,10.013,8.554,16.966,8.554c0.016,0,0.031-0.002,0.048-0.002l-20.663-35.956h12.719c2.164,0,3.053-1.535,1.977-3.41
	l-40.23-70.001c-1.076-1.875-2.84-1.875-3.918,0l-40.229,70.001c-1.076,1.875-0.188,3.41,1.979,3.41h12.715l-20.158,35.077
	C133.486,198.576,137.308,195.847,139.993,192.223z"/>
<g>
	<path id="SVGCleanerId_0_1_" style="fill:#FFFFFF;" d="M139.993,192.223c3.845,5.189,10.012,8.554,16.965,8.554
		c6.954,0,13.121-3.365,16.966-8.554c3.845,5.189,10.012,8.554,16.966,8.554c6.953,0,13.121-3.365,16.965-8.554
		c3.845,5.189,10.013,8.554,16.966,8.554c0.016,0,0.031-0.002,0.048-0.002l-20.663-35.956h12.719c2.164,0,3.053-1.535,1.977-3.41
		l-40.23-70.001c-1.076-1.875-2.84-1.875-3.918,0l-40.229,70.001c-1.076,1.875-0.188,3.41,1.979,3.41h12.715l-20.158,35.077
		C133.486,198.576,137.308,195.847,139.993,192.223z"/>
</g>
<path style="fill:#5E9900;" d="M504.041,413.65l-30.894-53.757h14.035c2.166,0,3.057-1.534,1.979-3.41l-28.775-50.069h11.916
	c0.271,0,0.523-0.023,0.752-0.07c1.605-0.318,2.17-1.7,1.227-3.34l-29.574-51.463h12.717c2.166,0,3.055-1.534,1.977-3.41l-40.229-70
	c-1.076-1.875-2.842-1.875-3.918,0l-40.229,70c-1.078,1.876-0.188,3.41,1.979,3.41h12.715l-15.467,26.914
	c43.35,32.798,73.476,82.174,80.833,138.604h46.982C504.228,417.059,505.121,415.526,504.041,413.65z"/>
<path style="fill:#FFFFFF;" d="M444.705,251.541h12.717c2.166,0,3.055-1.534,1.977-3.41l-40.229-70
	c-1.076-1.875-2.842-1.875-3.918,0l-40.229,70c-1.078,1.876-0.188,3.41,1.979,3.41h12.715l-15.467,26.914
	c5.764,4.36,11.29,9.017,16.564,13.94c6.247-0.502,11.729-3.719,15.256-8.477c3.845,5.188,10.012,8.554,16.965,8.554
	c6.954,0,13.121-3.365,16.966-8.554c3.845,5.188,10.012,8.554,16.966,8.554c3.562,0,6.913-0.888,9.857-2.446L444.705,251.541z"/>
<path id="SVGCleanerId_1" style="fill:#3A5792;" d="M51.236,490.095c-5.424,0-9.822-4.395-9.822-9.815v-36.256
	c0-114.455,93.178-207.571,207.711-207.571c114.531,0,207.709,93.116,207.709,207.571v36.256c0,5.421-4.397,9.815-9.822,9.815
	H51.236z"/>
<g>
	<path id="SVGCleanerId_1_1_" style="fill:#3A5792;" d="M51.236,490.095c-5.424,0-9.822-4.395-9.822-9.815v-36.256
		c0-114.455,93.178-207.571,207.711-207.571c114.531,0,207.709,93.116,207.709,207.571v36.256c0,5.421-4.397,9.815-9.822,9.815
		H51.236z"/>
</g>
<g style="opacity:0.1;">
	<path d="M93.58,480.279v-36.256c0-105.628,79.361-193.078,181.628-205.939c-8.546-1.075-17.25-1.633-26.083-1.633
		c-114.533,0-207.711,93.116-207.711,207.571v36.256c0,5.421,4.398,9.815,9.822,9.815h52.166
		C97.979,490.095,93.58,485.7,93.58,480.279z"/>
</g>
<path style="fill:#FFFFFF;" d="M249.125,236.452c-114.533,0-207.711,93.116-207.711,207.571v36.256c0,5.421,4.398,9.815,9.822,9.815
	h10.178v-46.071c0-103.427,84.207-187.571,187.711-187.571c103.503,0,187.709,84.145,187.709,187.571v46.071h10.178
	c5.426,0,9.822-4.395,9.822-9.815v-36.256C456.834,329.568,363.656,236.452,249.125,236.452z"/>
<path style="fill:#11867F;" d="M432.435,485.669l-18.764-35.682c-1.28-2.434-4.577-4.426-7.327-4.426h-30.541
	c-3.348,18.647-14.391,34.621-29.727,44.533c0.004,0,0.007,0,0.01,0h83.676C432.512,490.095,433.715,488.103,432.435,485.669z"/>
<g>
	<path style="fill:#A53C29;" d="M368.309,371.305c-7.339,0-13.879,3.404-18.138,8.714c11.921,9.022,20.745,21.914,24.581,36.813
		c9.696-2.792,16.791-11.719,16.791-22.308C391.543,381.701,381.141,371.305,368.309,371.305z"/>
	<path style="fill:#A53C29;" d="M116.774,423.503c6.962-10.827,16.935-19.527,28.743-24.927
		c-2.866-7.761-10.313-13.306-19.074-13.306c-11.238,0-20.35,9.105-20.35,20.337C106.094,413.341,110.414,420.064,116.774,423.503z"
		/>
	<path style="fill:#A53C29;" d="M309.609,366.416c-16.305,0-31.252,5.8-42.897,15.445c-4.146-6.353-11.316-10.557-19.473-10.557
		c-12.143,0-22.105,9.311-23.14,21.177c-0.059,0.674-0.095,1.354-0.095,2.042c0,11.827,8.852,21.584,20.295,23.028
		c-1.266,5.153-1.951,10.534-1.951,16.077c0,8.179,1.464,16.014,4.143,23.261c0,0,0,0.002,0.001,0.003h31.372
		c9.174,0,16.609,7.434,16.609,16.602c0,9.167-7.436,16.601-16.609,16.601h68.211c18.521-11.97,30.793-32.779,30.793-56.466
		C376.869,396.508,346.756,366.416,309.609,366.416z"/>
</g>
<path id="SVGCleanerId_2" style="fill:#A53C29;" d="M277.865,456.893h-31.372c-2.679-7.248-4.144-15.084-4.144-23.264
	c0-5.543,0.686-10.924,1.951-16.077c-11.443-1.444-20.295-11.201-20.295-23.028c0-0.689,0.036-1.369,0.095-2.043h-50.562
	c-37.248,0-67.445,30.176-67.445,67.4c0,10.867,2.59,21.124,7.16,30.214h164.611c9.174,0,16.609-7.434,16.609-16.601
	C294.475,464.326,287.039,456.893,277.865,456.893z"/>
<path style="fill:#A53C29;" d="M375.543,456.893h-2.817c-5.079,13.74-14.524,25.366-26.649,33.202h29.467
	c9.174,0,16.611-7.434,16.611-16.601C392.154,464.326,384.717,456.893,375.543,456.893z"/>
<g>
	<path id="SVGCleanerId_2_1_" style="fill:#A53C29;" d="M277.865,456.893h-31.372c-2.679-7.248-4.144-15.084-4.144-23.264
		c0-5.543,0.686-10.924,1.951-16.077c-11.443-1.444-20.295-11.201-20.295-23.028c0-0.689,0.036-1.369,0.095-2.043h-50.562
		c-37.248,0-67.445,30.176-67.445,67.4c0,10.867,2.59,21.124,7.16,30.214h164.611c9.174,0,16.609-7.434,16.609-16.601
		C294.475,464.326,287.039,456.893,277.865,456.893z"/>
</g>
<g style="opacity:0.1;">
	<path d="M126.058,452.51c0.894-26.83,17.462-49.688,40.86-59.702c-34.14,3.325-60.824,32.082-60.824,67.073
		c0,10.867,2.59,21.124,7.16,30.214h19.555C128.238,481.005,125,465.001,126.058,452.51z"/>
</g>
<path style="fill:#B3CCE2;" d="M150.387,485.818l-10.113-16.688c-1.426-2.353-4.842-4.276-7.592-4.276H112.09
	c-0.492,0-1.008,0.08-1.528,0.195l10.844,20.619c1.28,2.435,0.077,4.426-2.673,4.426h29.246
	C150.729,490.095,151.813,488.171,150.387,485.818z"/>
<path style="fill:#11867F;" d="M64.354,490.095c-2.75,0-3.953-1.991-2.673-4.426l11.439-21.755c1.28-2.435,4.577-4.426,7.327-4.426
	h22.189c2.75,0,6.047,1.991,7.327,4.425l11.441,21.756c1.28,2.435,0.077,4.426-2.673,4.426H64.354z"/>
<g>
	<ellipse style="fill:#A2E8F9;" cx="269.91" cy="129.001" rx="16.09" ry="16.09"/>
	<ellipse style="fill:#A2E8F9;" cx="419.09" cy="91.191" rx="16.09" ry="16.09"/>
	<ellipse style="fill:#A2E8F9;" cx="137.91" cy="38.001" rx="16.09" ry="16.09"/>
	<ellipse style="fill:#A2E8F9;" cx="63.09" cy="107.001" rx="16.09" ry="16.09"/>
</g>
<path d="M313.262,425.464h-12.228c-4.143,0-7.5,3.357-7.5,7.5s3.357,7.5,7.5,7.5h12.228c4.143,0,7.5-3.357,7.5-7.5
	S317.404,425.464,313.262,425.464z"/>
<path d="M346.893,444.462h-19.566c-4.143,0-7.5,3.358-7.5,7.5c0,4.143,3.357,7.5,7.5,7.5h2.283v5.941c0,4.143,3.357,7.5,7.5,7.5
	s7.5-3.357,7.5-7.5v-5.941h2.283c4.143,0,7.5-3.357,7.5-7.5C354.393,447.819,351.035,444.462,346.893,444.462z"/>
<path d="M258.193,392.368l-5.893-3.926c-3.447-2.299-8.104-1.364-10.399,2.083c-2.297,3.447-1.364,8.103,2.083,10.399l5.893,3.926
	c1.278,0.853,2.723,1.26,4.151,1.26c2.424,0,4.804-1.174,6.248-3.343C262.573,399.32,261.641,394.664,258.193,392.368z"/>
<path d="M351.627,341.595h-2.021l5.199-5.196c3.26-3.257,3.298-7.132,2.246-9.672c-1.051-2.54-3.816-5.254-8.425-5.254H331
	c-4.143,0-7.5,3.357-7.5,7.5s3.357,7.5,7.5,7.5h2.512l-5.201,5.197c-3.258,3.259-3.295,7.133-2.243,9.672
	c1.052,2.54,3.817,5.253,8.425,5.253h17.135c4.142,0,7.5-3.358,7.5-7.5C359.127,344.952,355.77,341.595,351.627,341.595z"/>
<path d="M311.764,306.841h-2.02l5.201-5.196c3.258-3.259,3.295-7.133,2.243-9.672c-1.052-2.54-3.817-5.253-8.425-5.253h-17.625
	c-4.143,0-7.5,3.357-7.5,7.5c0,4.142,3.357,7.5,7.5,7.5h2.51l-5.201,5.196c-3.258,3.259-3.295,7.133-2.243,9.672
	c1.052,2.54,3.817,5.253,8.425,5.253h17.135c4.143,0,7.5-3.357,7.5-7.5C319.264,310.198,315.906,306.841,311.764,306.841z"/>
<path d="M269.911,152.595c13.007,0,23.589-10.584,23.589-23.594s-10.582-23.594-23.589-23.594s-23.588,10.584-23.588,23.594
	S256.904,152.595,269.911,152.595z M269.911,120.407c4.736,0,8.589,3.855,8.589,8.594c0,4.738-3.853,8.594-8.589,8.594
	c-4.735,0-8.588-3.855-8.588-8.594C261.323,124.263,265.176,120.407,269.911,120.407z"/>
<path d="M419.088,114.782c13.007,0,23.589-10.584,23.589-23.594s-10.582-23.594-23.589-23.594S395.5,78.179,395.5,91.188
	S406.081,114.782,419.088,114.782z M419.088,82.595c4.736,0,8.589,3.855,8.589,8.594c0,4.738-3.853,8.594-8.589,8.594
	c-4.735,0-8.588-3.855-8.588-8.594C410.5,86.45,414.353,82.595,419.088,82.595z"/>
<path d="M137.911,61.595c13.007,0,23.589-10.584,23.589-23.594s-10.582-23.594-23.589-23.594s-23.588,10.584-23.588,23.594
	S124.904,61.595,137.911,61.595z M137.911,29.407c4.736,0,8.589,3.855,8.589,8.594s-3.852,8.594-8.589,8.594
	c-4.735,0-8.588-3.855-8.588-8.594S133.176,29.407,137.911,29.407z"/>
<path d="M63.088,130.595c13.007,0,23.589-10.584,23.589-23.594S76.095,83.407,63.088,83.407S39.5,93.991,39.5,107.001
	S50.081,130.595,63.088,130.595z M63.088,98.407c4.736,0,8.589,3.855,8.589,8.594c0,4.738-3.853,8.594-8.589,8.594
	c-4.735,0-8.588-3.855-8.588-8.594C54.5,102.263,58.353,98.407,63.088,98.407z"/>
<path d="M504.5,482.595h-40.166v-38.571c0-6.562-0.313-13.051-0.891-19.465h38.621c3.727,0,6.979-1.775,8.699-4.749
	c1.719-2.973,1.635-6.674-0.22-9.897l-24.437-42.52h1.074c3.727,0,6.979-1.774,8.698-4.747c1.72-2.971,1.638-6.672-0.217-9.9
	l-22.343-38.876c0.416-0.035,0.817-0.093,1.191-0.17c3.126-0.619,5.64-2.563,6.898-5.33c1.293-2.846,1.063-6.164-0.627-9.103
	l-23.118-40.229c3.624-0.075,6.772-1.836,8.455-4.743c1.719-2.971,1.638-6.673-0.218-9.901l-40.227-69.996
	c-1.859-3.239-5.023-5.173-8.464-5.173c-3.44,0-6.604,1.934-8.462,5.169l-20.088,34.954l-3.681-6.405
	c3.625-0.075,6.772-1.836,8.455-4.744c1.72-2.972,1.638-6.674-0.218-9.9l-40.223-69.998c-1.859-3.239-5.023-5.173-8.464-5.173
	c-3.44,0-6.604,1.933-8.462,5.169l-40.228,70c-1.855,3.227-1.938,6.929-0.218,9.9c1.682,2.908,4.83,4.67,8.454,4.745l-16.887,29.385
	c-12.357-2.215-25.076-3.375-38.063-3.375c-5.03,0-10.017,0.188-14.961,0.528l-1.342-2.334c0.408-0.035,0.809-0.092,1.193-0.17
	c3.127-0.622,5.642-2.566,6.898-5.337c1.291-2.847,1.059-6.165-0.631-9.097l-23.118-40.227c3.623-0.074,6.771-1.835,8.454-4.741
	c1.72-2.97,1.64-6.671-0.215-9.903l-11.731-20.413c-2.066-3.591-6.65-4.83-10.24-2.766c-3.591,2.064-4.829,6.648-2.766,10.24
	l7.233,12.586h-3.694c-2.677,0-5.15,1.427-6.491,3.743c-1.341,2.317-1.346,5.173-0.012,7.494l9.319,16.217
	c-2.059,0.229-3.946,1.301-5.193,2.985c-2.598,3.507-6.585,5.519-10.938,5.519c-4.354,0-8.341-2.012-10.939-5.519
	c-1.415-1.909-3.65-3.035-6.026-3.035s-4.611,1.126-6.026,3.035c-2.599,3.507-6.586,5.519-10.94,5.519
	c-4.352,0-8.34-2.012-10.938-5.519c-0.247-0.333-0.521-0.633-0.811-0.913l10.511-18.289c1.334-2.321,1.329-5.177-0.012-7.494
	c-1.341-2.316-3.814-3.743-6.491-3.743h-3.692l31.187-54.268l8.44,14.688c2.064,3.591,6.647,4.828,10.24,2.766
	c3.591-2.064,4.829-6.648,2.766-10.24l-12.982-22.59c-1.858-3.237-5.021-5.172-8.46-5.173c-0.001,0-0.002,0-0.003,0
	c-3.438,0-6.601,1.932-8.463,5.169l-40.23,70.005c-1.853,3.229-1.933,6.929-0.213,9.899c1.683,2.905,4.83,4.666,8.452,4.741
	l-7.763,13.508l-25.244-43.925c-1.859-3.239-5.023-5.173-8.463-5.173c-3.438,0-6.601,1.932-8.463,5.169l-40.231,70.005
	c-1.853,3.229-1.933,6.929-0.213,9.9c1.683,2.905,4.83,4.666,8.452,4.741l-23.12,40.231C29.36,270,29.28,273.7,31,276.67
	c1.562,2.696,4.384,4.406,7.678,4.699l-22.342,38.877c-1.856,3.228-1.937,6.931-0.218,9.901c1.72,2.972,4.972,4.746,8.697,4.746
	h1.075l-24.435,42.52c-1.855,3.228-1.937,6.93-0.218,9.9c1.72,2.972,4.971,4.746,8.697,4.746h30.344
	c-4.148,16.647-6.365,34.05-6.365,51.963v36.256c0,0.787,0.071,1.556,0.174,2.315H7.5c-4.143,0-7.5,3.357-7.5,7.5
	c0,4.142,3.357,7.5,7.5,7.5h497c4.143,0,7.5-3.358,7.5-7.5C512,485.952,508.643,482.595,504.5,482.595z M396.22,255.278
	c1.334-2.321,1.329-5.177-0.012-7.494c-1.341-2.316-3.814-3.743-6.491-3.743h-3.692l31.186-54.267l31.187,54.267h-3.692
	c-2.677,0-5.15,1.427-6.491,3.743c-1.341,2.317-1.346,5.173-0.012,7.494l16.995,29.574c-3.652-0.469-6.93-2.373-9.171-5.398
	c-1.415-1.909-3.65-3.035-6.026-3.035s-4.611,1.126-6.026,3.035c-2.599,3.507-6.586,5.519-10.939,5.519s-8.34-2.012-10.939-5.519
	c-1.415-1.909-3.65-3.035-6.026-3.035s-4.611,1.126-6.026,3.035c-1.765,2.382-4.178,4.053-6.904,4.893
	c-2.974-2.681-6.027-5.275-9.147-7.79L396.22,255.278z M344.527,133.678l31.187,54.268h-3.692c-2.677,0-5.15,1.427-6.491,3.743
	c-1.341,2.317-1.346,5.173-0.012,7.494l9.331,16.237c-0.034,0-0.068-0.006-0.103-0.006c-2.376,0-4.612,1.126-6.026,3.036
	c-1.982,2.676-5.025,4.211-8.347,4.211c-3.321,0-6.364-1.535-8.348-4.212c-1.415-1.909-3.65-3.035-6.026-3.035
	s-4.611,1.126-6.026,3.035c-1.983,2.677-5.026,4.212-8.348,4.212c-3.321,0-6.363-1.535-8.346-4.211
	c-1.414-1.91-3.649-3.036-6.025-3.036c-0.001,0-0.001,0-0.001,0c-1.267,0-2.488,0.329-3.572,0.917l9.854-17.148
	c1.334-2.321,1.329-5.177-0.012-7.494c-1.341-2.316-3.814-3.743-6.491-3.743h-3.692L344.527,133.678z M317.253,233.184
	c4.188,2.873,9.201,4.478,14.373,4.478s10.185-1.605,14.374-4.479c4.189,2.874,9.202,4.479,14.374,4.479s10.186-1.605,14.373-4.478
	c0.052,0.035,0.106,0.065,0.158,0.1l-6.385,11.11c-1.855,3.229-1.936,6.93-0.217,9.9c1.683,2.907,4.83,4.669,8.454,4.744
	l-4.856,8.451c-19.269-13.425-40.829-23.779-63.964-30.36C311.277,236.442,314.452,235.104,317.253,233.184z M140.028,215.934
	c-1.341-2.316-3.814-3.743-6.491-3.743h-2.893l6.72-11.693c5.265,4.936,12.289,7.779,19.595,7.779
	c6.148,0,12.098-2.013,16.966-5.591c4.868,3.578,10.818,5.591,16.966,5.591c7.681,0,15.053-3.142,20.392-8.554h4.332l7.165,12.468
	h-2.892c-2.677,0-5.15,1.427-6.491,3.743c-1.341,2.317-1.346,5.173-0.012,7.494l4.483,7.801
	c-33.81,4.938-65.088,17.758-91.908,36.531c-1.378-1.319-3.224-2.09-5.184-2.09h-5.011l24.275-42.242
	C141.374,221.106,141.369,218.251,140.028,215.934z M73.784,215.286c-1.341-2.316-3.814-3.743-6.491-3.743h-3.692l31.187-54.268
	l25.058,43.601l-6.707,11.671c-1.853,3.229-1.933,6.929-0.213,9.899c1.562,2.696,4.385,4.406,7.678,4.699l-11.696,20.352
	c-4.33-0.018-8.293-2.023-10.88-5.515c-1.415-1.909-3.65-3.035-6.026-3.035s-4.611,1.126-6.026,3.035
	c-2.599,3.507-6.586,5.519-10.939,5.519c-4.353,0-8.34-2.012-10.938-5.519c-0.247-0.333-0.522-0.634-0.811-0.913l10.511-18.289
	C75.13,220.459,75.125,217.603,73.784,215.286z M18.96,377.061l26.395-45.929c1.334-2.321,1.329-5.177-0.012-7.494
	c-1.341-2.316-3.814-3.743-6.491-3.743h-5.011l24.275-42.242c1.334-2.321,1.329-5.177-0.012-7.494
	c-1.341-2.316-3.814-3.743-6.491-3.743H48.72l6.72-11.693c5.265,4.936,12.289,7.779,19.595,7.779c6.147,0,12.098-2.013,16.966-5.591
	c2.702,1.985,5.744,3.468,8.961,4.413l-2.7,4.699c-1.855,3.228-1.936,6.931-0.218,9.901c1.72,2.972,4.972,4.746,8.697,4.746h1.075
	l-1.497,2.604c-28.146,25-49.701,57.246-61.711,93.786H18.96V377.061z M71.771,482.595l7.926-15.072
	c0.188-0.199,0.621-0.461,0.884-0.534h21.924c0.264,0.073,0.696,0.335,0.884,0.534l7.927,15.072H71.771z M129.352,482.595h-1.119
	c-0.066-0.139-0.117-0.279-0.189-0.417l-5.166-9.823h9.718c0.372,0.072,1.055,0.457,1.31,0.737l5.759,9.503H129.352z
	 M343.794,482.595h-43.61c1.151-2.811,1.791-5.881,1.791-9.101c0-13.29-10.815-24.102-24.109-24.102H251.99
	c-1.392-5.067-2.14-10.354-2.14-15.764c0-4.794,0.584-9.602,1.734-14.288c0.511-2.078,0.109-4.274-1.103-6.037
	c-1.212-1.764-3.119-2.925-5.241-3.193c-7.83-0.987-13.734-7.689-13.734-15.587c0-8.667,7.059-15.719,15.734-15.719
	c5.336,0,10.268,2.675,13.192,7.156c1.168,1.789,3.044,2.996,5.157,3.315c2.109,0.318,4.262-0.276,5.907-1.64
	c10.682-8.848,24.218-13.721,38.112-13.721c30.18,0,55.189,22.474,59.186,51.548h-11.509c-4.143,0-7.5,3.357-7.5,7.5
	s3.357,7.5,7.5,7.5h11.682C367.033,457.411,357.966,472.71,343.794,482.595z M361.827,380.231c1.979-0.902,4.166-1.427,6.482-1.427
	c8.676,0,15.734,7.052,15.734,15.719c0,4.524-1.926,8.6-4.999,11.466C375.137,396.223,369.233,387.468,361.827,380.231z
	 M375.543,482.595h-9.455c4.715-5.414,8.596-11.461,11.557-17.948c4.013,0.951,7.01,4.553,7.01,8.848
	C384.654,478.513,380.567,482.595,375.543,482.595z M397.863,482.595c1.151-2.811,1.791-5.881,1.791-9.101
	c0-8.607-4.539-16.168-11.346-20.433h17.902c0.264,0.073,0.696,0.335,0.884,0.534l15.249,28.999h-24.48V482.595z M449.334,480.279
	c0,1.276-1.042,2.315-2.322,2.315h-2.678v-38.571c0-27.503-5.642-54.111-16.769-79.087c-10.743-24.114-26.035-45.511-45.452-63.593
	c-3.031-2.823-7.778-2.654-10.6,0.377c-2.823,3.031-2.654,7.777,0.377,10.6c17.934,16.701,32.055,36.458,41.974,58.721
	c10.265,23.041,15.47,47.597,15.47,72.983v19.636l-9.025-17.163c-2.57-4.887-8.443-8.435-13.965-8.435h-22.108
	c0.086-1.47,0.134-2.947,0.134-4.433c0-4.198-0.365-8.31-1.035-12.322c9.366-5.269,15.709-15.297,15.709-26.783
	c0-16.939-13.787-30.719-30.734-30.719c-7.156,0-13.737,2.468-18.965,6.583c-11.521-7.256-25.141-11.472-39.734-11.472
	c-14.923,0-29.517,4.495-41.805,12.775c-5.575-5.028-12.853-7.886-20.564-7.886c-13.614,0-25.183,8.897-29.209,21.176H210
	c-4.143,0-7.5,3.357-7.5,7.5s3.357,7.5,7.5,7.5h7.014c1.875,10.354,8.962,19.038,18.604,22.98c-0.51,3.537-0.768,7.104-0.768,10.668
	c0,5.368,0.583,10.644,1.684,15.764h-9.504c-4.143,0-7.5,3.357-7.5,7.5s3.357,7.5,7.5,7.5h50.836c5.022,0,9.109,4.083,9.109,9.102
	c0,5.018-4.087,9.101-9.109,9.101h-76.243c1.712-3.513,2.675-7.453,2.675-11.616c0-14.676-11.945-26.616-26.629-26.616H149.12
	c-4.143,0-7.5,3.358-7.5,7.5c0,4.143,3.357,7.5,7.5,7.5h28.549c6.412,0,11.629,5.211,11.629,11.616s-5.217,11.616-11.629,11.616
	H157.15c-0.116-0.221-0.218-0.445-0.35-0.663l-10.113-16.688c-2.77-4.571-8.661-7.89-14.006-7.89h-18.284
	c-0.229-0.247-0.467-0.486-0.713-0.721c1.694-31.525,27.892-56.653,59.854-56.653c4.143,0,7.5-3.357,7.5-7.5s-3.357-7.5-7.5-7.5
	c-8.639,0-16.934,1.485-24.662,4.186c-5.072-6.899-13.23-11.397-22.434-11.397c-15.356,0-27.85,12.487-27.85,27.837
	c0,7.791,3.225,14.838,8.403,19.896c-4.199,8.087-6.981,17.021-7.979,26.485H80.447c-4.169,0-8.536,2.024-11.533,5.118v-13.083
	c0-99.292,80.843-180.071,180.211-180.071c33.622,0,66.443,9.355,94.913,27.055c3.516,2.186,8.143,1.109,10.329-2.409
	c2.188-3.518,1.108-8.143-2.409-10.329c-30.85-19.179-66.409-29.316-102.833-29.316c-107.64,0-195.211,87.509-195.211,195.071
	v38.571h-2.678c-1.28,0-2.322-1.039-2.322-2.315v-36.256c0-110.319,89.814-200.071,200.211-200.071
	c110.396,0,200.209,89.752,200.209,200.071L449.334,480.279L449.334,480.279z M113.594,405.607c0-7.078,5.765-12.837,12.85-12.837
	c3.162,0,6.053,1.156,8.291,3.057c-7.288,4.428-13.758,10.066-19.144,16.627C114.33,410.472,113.594,408.126,113.594,405.607z
	 M404.541,295.405c0.517-0.33,1.033-0.66,1.528-1.023c4.868,3.578,10.818,5.591,16.965,5.591s12.098-2.013,16.966-5.591
	c4.766,3.502,10.569,5.492,16.578,5.575c-1.094,0.645-2.026,1.563-2.685,2.7c-1.341,2.317-1.346,5.173-0.012,7.494l24.277,42.242
	h-5.013c-2.677,0-5.15,1.427-6.491,3.743c-1.341,2.317-1.346,5.173-0.012,7.494l26.396,45.928h-31.482
	C454.453,365.666,434.02,326.181,404.541,295.405z M464.16,482.595c0.013-0.093,0.024-0.082,0.036,0H464.16z"/>
<g>
</g>
<g>
</g>
<g>
</g>
<g>
</g>
<g>
</g>
<g>
</g>
<g>
</g>
<g>
</g>
<g>
</g>
<g>
</g>
<g>
</g>
<g>
</g>
<g>
</g>
<g>
</g>
<g>
</g>
</svg>
