<svg id="Layer_5" enable-background="new 0 0 64 64" height="512" viewBox="0 0 64 64" width="512" xmlns="http://www.w3.org/2000/svg"><g><g><g><path d="m9 20 5 8h-3v10h-4v-10h-3z" fill="#b4dd7f"/></g><g><path d="m55 20 5 8h-3v10h-4v-10h-3z" fill="#b4dd7f"/></g><g><path d="m49 46h13v16h-60v-16h13v10c0 1.1.9 2 2 2h30c1.1 0 2-.9 2-2z" fill="#ccd1d9"/></g><g><path d="m28 34v6h-13v-4c0-1.1.9-2 2-2h9z" fill="#cf9e76"/></g><g><path d="m38 34h9c1.1 0 2 .9 2 2v4h-13v-6z" fill="#cf9e76"/></g><g><path d="m49 46v10c0 1.1-.9 2-2 2h-30c-1.1 0-2-.9-2-2v-10-6h13v4h8v-4h13z" fill="#d3a06c"/></g><g><path d="m36 40v4h-8v-4-6h8z" fill="#b27946"/></g><g><path d="m36 24 2 10h-2-8-2l2-10z" fill="#969faa"/></g><g><path d="m47 20v2c0 1.1-.9 2-2 2h-9-8-9c-1.1 0-2-.9-2-2v-2h10 10z" fill="#aab2bd"/></g><g><path d="m27 20h-10v-16c0-1.1.9-2 2-2h2v12c0 3.31 2.69 6 6 6z" fill="#ccd1d9"/></g><g><path d="m47 4v16h-10c3.31 0 6-2.69 6-6v-12h2c1.1 0 2 .9 2 2z" fill="#ccd1d9"/></g><g><path d="m43 2v12c0 3.31-2.69 6-6 6h-10c-3.31 0-6-2.69-6-6v-12z" fill="#ff826e"/></g><g><path d="m25 6h14v6h-14z" fill="#69d6f4"/></g></g><g><path d="m52 39h6v-10h3.804l-6.804-10.887-6.804 10.887h3.804zm-.196-12 3.196-5.113 3.196 5.113h-2.196v10h-2v-10z"/><path d="m6 39h6v-10h3.804l-6.804-10.887-6.804 10.887h3.804zm-.196-12 3.196-5.113 3.196 5.113h-2.196v10h-2v-10z"/><path d="m40 5h-16v8h16zm-2 6h-12v-4h12z"/><path d="m35 15h2v2h-2z"/><path d="m31 15h2v2h-2z"/><path d="m27 15h2v2h-2z"/><path d="m50 45v-9c0-1.654-1.346-3-3-3h-8.18l-1.6-8h7.78c1.654 0 3-1.346 3-3v-18c0-1.654-1.346-3-3-3h-26c-1.654 0-3 1.346-3 3v18c0 1.654 1.346 3 3 3h7.78l-1.6 8h-8.18c-1.654 0-3 1.346-3 3v9h-13v18h62v-18zm-34-4h11v4h10v-4h11v15c0 .552-.449 1-1 1h-30c-.551 0-1-.448-1-1zm19-6v8h-6v-8zm13 1v3h-11v-4h10c.551 0 1 .448 1 1zm-2-32v15h-4.11c1.3-1.272 2.11-3.042 2.11-5v-11h1c.551 0 1 .449 1 1zm-24 10v-11h20v11c0 2.757-2.243 5-5 5h-10c-2.757 0-5-2.243-5-5zm-3-11h1v11c0 1.958.81 3.728 2.11 5h-4.11v-15c0-.551.449-1 1-1zm-1 19v-1h9 10 9v1c0 .551-.449 1-1 1h-26c-.551 0-1-.449-1-1zm10.82 3h6.361l1.6 8h-9.561zm-11.82 10h10v4h-11v-3c0-.552.449-1 1-1zm44 26h-58v-14h11v9c0 1.654 1.346 3 3 3h30c1.654 0 3-1.346 3-3v-9h11z"/><path d="m36 49h10v2h-10z"/><path d="m36 53h10v2h-10z"/><path d="m57 49h2v2h-2z"/><path d="m57 57h2v2h-2z"/><path d="m57 53h2v2h-2z"/></g></g></svg>