<svg height="480pt" viewBox="0 0 480 480" width="480pt" xmlns="http://www.w3.org/2000/svg"><path d="m472 280v152h-24c0-35.347656-28.652344-64-64-64s-64 28.652344-64 64h-24v-240h112.480469zm0 0" fill="#005ece"/><path d="m320 216v72h128l-51.152344-72zm0 0" fill="#58595b"/><path d="m272 336h-264v96h32c0-35.347656 28.652344-64 64-64s64 28.652344 64 64h128v-96zm0 0" fill="#006df0"/><path d="m144 432c0 22.089844-17.910156 40-40 40s-40-17.910156-40-40 17.910156-40 40-40 40 17.910156 40 40zm0 0" fill="#58595b"/><path d="m424 432c0 22.089844-17.910156 40-40 40s-40-17.910156-40-40 17.910156-40 40-40 40 17.910156 40 40zm0 0" fill="#58595b"/><path d="m400 432c0 8.835938-7.164062 16-16 16s-16-7.164062-16-16 7.164062-16 16-16 16 7.164062 16 16zm0 0" fill="#f1f2f2"/><path d="m120 432c0 8.835938-7.164062 16-16 16s-16-7.164062-16-16 7.164062-16 16-16 16 7.164062 16 16zm0 0" fill="#f1f2f2"/><path d="m240 144h-224v192h256v-192zm0 0" fill="#ff9811"/><path d="m120 208 24-16 24 16v-64h-48zm0 0" fill="#ed1c24"/><path d="m48 8v136h192v-136zm0 0" fill="#ffb655"/><path d="m144 48 16 8v-48h-32v48zm0 0" fill="#ed1c24"/><path d="m16 168v168h184c-101.703125 0-184-75.144531-184-168zm0 0" fill="#ee8700"/><path d="m48 56v88h112c-61.902344 0-112-39.359375-112-88zm0 0" fill="#ffa733"/><path d="m478.488281 275.320312-63.527343-88c-1.503907-2.082031-3.914063-3.316406-6.480469-3.320312h-112.480469c-4.417969 0-8 3.582031-8 8v136h-8v-192h-32v-136h-208v136h-32v192c-4.417969 0-8 3.582031-8 8v96c0 4.417969 3.582031 8 8 8h32c4.417969 0 8-3.582031 8-8 0-30.929688 25.070312-56 56-56s56 25.070312 56 56c0 4.417969 3.582031 8 8 8h152c4.417969 0 8-3.582031 8-8 0-30.929688 25.070312-56 56-56s56 25.070312 56 56c0 4.417969 3.582031 8 8 8h24c4.417969 0 8-3.582031 8-8v-152c0-1.679688-.527344-3.316406-1.511719-4.679688zm-326.488281-259.320312v27.054688l-8-4-8 4v-27.054688zm-96 0h64v52.945312l24-12 24 12v-52.945312h64v120h-176zm72 136h32v41.046875l-16-10.648437-16 10.664062zm-104 0h88v70.953125l32-21.351563 32 21.335938v-70.9375h88v176h-240zm80 208c-36.652344.042969-67.4375 27.582031-71.550781 64h-16.449219v-80h272v80h-112.449219c-4.113281-36.417969-34.898437-63.957031-71.550781-64zm360 64h-8.472656c-4.179688-36.339844-34.949219-63.769531-71.527344-63.769531s-67.347656 27.429687-71.527344 63.769531h-8.472656v-224h100.382812l59.617188 82.585938zm0 0"/><path d="m396.847656 208h-76.847656c-4.417969 0-8 3.582031-8 8v72c0 4.417969 3.582031 8 8 8h128c2.992188 0 5.734375-1.671875 7.105469-4.332031 1.375-2.65625 1.148437-5.859375-.585938-8.300781l-51.144531-72c-1.5-2.113282-3.933594-3.367188-6.527344-3.367188zm-68.847656 72v-56h64.71875l39.777344 56zm0 0"/><path d="m104 384c-26.507812 0-48 21.492188-48 48s21.492188 48 48 48 48-21.492188 48-48c-.027344-26.5-21.5-47.972656-48-48zm0 80c-17.671875 0-32-14.328125-32-32s14.328125-32 32-32 32 14.328125 32 32-14.328125 32-32 32zm0 0"/><path d="m384 384c-26.507812 0-48 21.492188-48 48s21.492188 48 48 48 48-21.492188 48-48c-.027344-26.5-21.5-47.972656-48-48zm0 80c-17.671875 0-32-14.328125-32-32s14.328125-32 32-32 32 14.328125 32 32-14.328125 32-32 32zm0 0"/><path d="m384 408c-13.253906 0-24 10.746094-24 24s10.746094 24 24 24 24-10.746094 24-24-10.746094-24-24-24zm0 32c-4.417969 0-8-3.582031-8-8s3.582031-8 8-8 8 3.582031 8 8-3.582031 8-8 8zm0 0"/><path d="m104 408c-13.253906 0-24 10.746094-24 24s10.746094 24 24 24 24-10.746094 24-24-10.746094-24-24-24zm0 32c-4.417969 0-8-3.582031-8-8s3.582031-8 8-8 8 3.582031 8 8-3.582031 8-8 8zm0 0"/><path d="m176 296h16v16h-16zm0 0"/><path d="m200 296h40v16h-40zm0 0"/><path d="m176 272h16v16h-16zm0 0"/><path d="m200 272h40v16h-40zm0 0"/><path d="m160 112h16v16h-16zm0 0"/><path d="m184 112h40v16h-40zm0 0"/><path d="m160 88h16v16h-16zm0 0"/><path d="m184 88h40v16h-40zm0 0"/><path d="m344 304h-8c-4.417969 0-8 3.582031-8 8s3.582031 8 8 8h8c4.417969 0 8-3.582031 8-8s-3.582031-8-8-8zm0 0"/></svg>