<svg id="Layer_35" enable-background="new 0 0 64 64" height="512" viewBox="0 0 64 64" width="512" xmlns="http://www.w3.org/2000/svg"><path d="m42.45 49.03c-.29.94-.45 1.93-.45 2.97 0 1.31.25 2.56.71 3.7-3.27 1.48-6.89 2.3-10.71 2.3-14.36 0-26-11.64-26-26h-4l5.93-10.87c1.24.56 2.62.87 4.07.87 1.04 0 2.03-.16 2.97-.45-1.87 3.04-2.97 6.61-2.97 10.45 0 6.54 3.14 12.35 8 16 3.33 2.51 7.49 4 12 4 3.84 0 7.41-1.1 10.45-2.97z" fill="#fcd770"/><circle cx="32" cy="32" fill="#e6e9ed" r="20"/><path d="m62 32-5.93 10.87c-1.24-.56-2.62-.87-4.07-.87-1.04 0-2.03.16-2.97.45 1.87-3.04 2.97-6.61 2.97-10.45 0-11.05-8.95-20-20-20-3.84 0-7.41 1.1-10.45 2.97.29-.94.45-1.93.45-2.97 0-1.31-.25-2.56-.71-3.7 3.27-1.48 6.89-2.3 10.71-2.3 14.36 0 26 11.64 26 26z" fill="#fcd770"/><path d="m39 46h-14-5v-2c0-3.32 1.34-6.32 3.51-8.49 1.51-1.51 3.42-2.62 5.56-3.15-.05.21-.07.42-.07.64 0 1.66 1.34 3 3 3s3-1.34 3-3c0-.22-.02-.43-.07-.64 5.21 1.31 9.07 6.02 9.07 11.64v2z" fill="#4fc1e9"/><circle cx="11.934" cy="11.934" fill="#b4dd7f" r="10"/><path d="m7.93 21.13c-1.01-.45-1.93-1.06-2.73-1.8.75-3.06 3.51-5.33 6.8-5.33 1.64 0 3.16.57 4.35 1.52 1.2.95 2.07 2.28 2.45 3.81-1.08 1-2.38 1.77-3.83 2.22-.94.29-1.93.45-2.97.45-1.45 0-2.83-.31-4.07-.87z" fill="#ef7385"/><circle cx="52" cy="52" fill="#b4dd7f" r="10"/><path d="m56.35 55.52c1.2.95 2.07 2.28 2.45 3.81-1.78 1.66-4.17 2.67-6.8 2.67s-5.02-1.01-6.8-2.67c.75-3.06 3.51-5.33 6.8-5.33 1.64 0 3.16.57 4.35 1.52z" fill="#ef7385"/><g fill="#f0d0b4"><circle cx="52" cy="50" r="4"/><circle cx="12" cy="10" r="4"/><path d="m32 32c1.01 0 1.99.12 2.93.36.05.21.07.42.07.64 0 1.66-1.34 3-3 3s-3-1.34-3-3c0-.22.02-.43.07-.64.93-.24 1.92-.36 2.93-.36z"/><circle cx="32" cy="25" r="7"/></g><path d="m57.438 42.451 6.247-11.451h-4.703c-.527-14.427-12.429-26-26.982-26-3.543 0-6.971.68-10.211 2.006-1.824-3.559-5.522-6.006-9.789-6.006-6.065 0-11 4.935-11 11 0 4.087 2.245 7.652 5.561 9.549l-6.246 11.451h4.703c.527 14.427 12.429 26 26.982 26 3.543 0 6.971-.68 10.211-2.007 1.824 3.56 5.522 6.007 9.789 6.007 6.065 0 11-4.935 11-11 0-4.087-2.245-7.653-5.562-9.549zm-25.438-35.451c13.785 0 25 11.215 25 25v1h3.315l-4.703 8.622c-1.133-.396-2.345-.622-3.612-.622-.366 0-.728.02-1.085.055 1.362-2.829 2.085-5.917 2.085-9.055 0-11.58-9.42-21-21-21-3.137 0-6.226.723-9.055 2.085.035-.357.055-.719.055-1.085 0-1.091-.165-2.143-.462-3.139 3.001-1.23 6.178-1.861 9.462-1.861zm9.639 41.341c-2.935 1.736-6.257 2.659-9.639 2.659-4.101 0-7.892-1.319-11-3.537v-.463h21.214c-.221.431-.412.88-.575 1.341zm-15.639-23.341c0-3.309 2.691-6 6-6s6 2.691 6 6-2.691 6-6 6-6-2.691-6-6zm6 8c.677 0 1.337.07 1.981.188-.097 1.013-.942 1.812-1.981 1.812s-1.884-.799-1.981-1.812c.644-.118 1.304-.188 1.981-.188zm-3.926.737c.348 1.854 1.973 3.263 3.926 3.263s3.578-1.409 3.926-3.263c4.129 1.585 7.074 5.582 7.074 10.263v1h-3v-5h-2v5h-12v-5h-2v5h-3v-1c0-4.681 2.945-8.678 7.074-10.263zm16.903 9.805c-.192-5.464-3.762-10.071-8.688-11.8 2.227-1.422 3.711-3.909 3.711-6.742 0-4.411-3.589-8-8-8s-8 3.589-8 8c0 2.833 1.484 5.32 3.711 6.742-5.064 1.778-8.711 6.594-8.711 12.258v1.818c-3.684-3.468-6-8.372-6-13.818 0-3.382.924-6.705 2.66-9.639 3.122-1.107 5.594-3.579 6.701-6.701 2.934-1.736 6.257-2.66 9.639-2.66 10.477 0 19 8.523 19 19 0 3.382-.923 6.705-2.659 9.639-1.236.438-2.375 1.081-3.364 1.903zm-35.977-33.542c0-1.654 1.346-3 3-3s3 1.346 3 3-1.346 3-3 3-3-1.346-3-3zm3 11c-2.134 0-4.094-.75-5.639-1.996.838-2.379 3.067-4.004 5.639-4.004s4.801 1.625 5.639 4.004c-1.545 1.246-3.505 1.996-5.639 1.996zm-9-9c0-4.962 4.038-9 9-9s9 4.038 9 9c0 2.042-.691 3.921-1.842 5.433-.823-1.659-2.186-2.966-3.844-3.717 1.026-.917 1.686-2.235 1.686-3.716 0-2.757-2.243-5-5-5s-5 2.243-5 5c0 1.481.66 2.799 1.686 3.715-1.658.752-3.021 2.059-3.844 3.718-1.151-1.512-1.842-3.391-1.842-5.433zm29 45c-13.785 0-25-11.215-25-25v-1h-3.315l4.703-8.622c1.133.396 2.345.622 3.612.622.366 0 .728-.02 1.085-.055-1.362 2.829-2.085 5.918-2.085 9.055 0 11.579 9.42 21 21 21 3.137 0 6.225-.723 9.055-2.085-.035.357-.055.719-.055 1.085 0 1.091.165 2.143.462 3.139-3.001 1.231-6.178 1.861-9.462 1.861zm14.361 2.004c.838-2.379 3.067-4.004 5.639-4.004s4.801 1.625 5.639 4.004c-1.545 1.246-3.505 1.996-5.639 1.996s-4.094-.75-5.639-1.996zm2.639-9.004c0-1.654 1.346-3 3-3s3 1.346 3 3-1.346 3-3 3-3-1.346-3-3zm10.158 7.433c-.823-1.659-2.186-2.966-3.844-3.718 1.026-.916 1.686-2.234 1.686-3.715 0-2.757-2.243-5-5-5s-5 2.243-5 5c0 1.481.66 2.799 1.686 3.715-1.658.752-3.021 2.059-3.844 3.718-1.151-1.512-1.842-3.391-1.842-5.433 0-4.963 4.038-9 9-9s9 4.037 9 9c0 2.042-.691 3.921-1.842 5.433z"/><path d="m15 32c0 .711.044 1.426.132 2.124l1.984-.248c-.077-.616-.116-1.248-.116-1.876 0-2.637.694-5.23 2.006-7.5l-1.731-1c-1.488 2.572-2.275 5.512-2.275 8.5z"/><path d="m15.536 36.25c.186.722.422 1.437.701 2.125l1.854-.75c-.246-.607-.454-1.238-.618-1.875z"/><path d="m46.854 23.727-1.746.976c.304.543.576 1.111.809 1.689l1.854-.749c-.264-.655-.572-1.3-.917-1.916z"/><path d="m48.851 29.743c-.092-.699-.23-1.399-.41-2.083l-1.935.509c.159.603.281 1.221.362 1.837z"/><path d="m44.345 20.312-1.452 1.376c.429.452.833.936 1.202 1.438l1.611-1.185c-.418-.568-.876-1.116-1.361-1.629z"/></svg>