<svg id="Layer_5" enable-background="new 0 0 64 64" height="512" viewBox="0 0 64 64" width="512" xmlns="http://www.w3.org/2000/svg"><path d="m24 2h38v34h-38z" fill="#e6e9ed"/><path d="m34 16-.01.05c-.16-.03-.32-.05-.49-.05h-5.25c-.16-.64-.25-1.31-.25-2 0-4.42 3.58-8 8-8v8z" fill="#e6e9ed"/><path d="m44 14h-8v-8c4.42 0 8 3.58 8 8z" fill="#fcd770"/><path d="m35.27 16.73c-.34-.34-.78-.58-1.28-.68l.01-.05 2-2h8c0 4.42-3.58 8-8 8-1.41 0-2.73-.36-3.88-1h1.38c1.38 0 2.5-1.12 2.5-2.5 0-.69-.28-1.32-.73-1.77z" fill="#ff826e"/><path d="m19 58.54v.46c0 .83-.34 1.58-.88 2.12s-1.29.88-2.12.88c-1.66 0-3-1.34-3-3v-18-.76c0-.79.32-1.56.88-2.12l1.12-1.12h4z" fill="#cf9e76"/><path d="m15 37-1.12 1.12c-.56.56-.88 1.33-.88 2.12v.76 18c0 .83-.34 1.58-.88 2.12s-1.29.88-2.12.88c-1.66 0-3-1.34-3-3v-20-2z" fill="#cf9e76"/><path d="m7 37v2h-1c-2.21 0-4-1.79-4-4v-11c0-4.42 3.58-8 8-8h3 11 4.25 5.25c.17 0 .33.02.49.05.5.1.94.34 1.28.68.45.45.73 1.08.73 1.77 0 1.38-1.12 2.5-2.5 2.5h-1.38-8.12-5v16h-4z" fill="#b4dd7f"/><circle cx="13" cy="9" fill="#f0d0b4" r="7"/><path d="m29.31 47.69c1.04 1.6 2.4 2.96 4 4l-8.28 9.17c-.66.73-1.59 1.14-2.57 1.14-.96 0-1.82-.39-2.45-1.01-.62-.63-1.01-1.49-1.01-2.45 0-.98.41-1.91 1.14-2.57z" fill="#969faa"/><path d="m54.42 36c.38 1.27.58 2.61.58 4 0 7.73-6.27 14-14 14-2.84 0-5.48-.85-7.69-2.31-1.6-1.04-2.96-2.4-4-4-1.46-2.21-2.31-4.85-2.31-7.69 0-1.39.2-2.73.58-4 1.72-5.78 7.08-10 13.42-10s11.7 4.22 13.42 10z" fill="#b4dd7f"/><circle cx="41" cy="40" fill="#fcd770" r="10"/><path d="m41 29c-6.065 0-11 4.935-11 11s4.935 11 11 11 11-4.935 11-11-4.935-11-11-11zm0 20c-4.963 0-9-4.037-9-9s4.037-9 9-9 9 4.037 9 9-4.037 9-9 9z"/><path d="m42 37c.552 0 1 .448 1 1h2c0-1.654-1.346-3-3-3v-2h-2v2h-3v3c0 1.654 1.346 3 3 3h2c.552 0 1 .448 1 1v1h-3c-.552 0-1-.448-1-1h-2c0 1.654 1.346 3 3 3v2h2v-2h3v-3c0-1.654-1.346-3-3-3h-2c-.552 0-1-.448-1-1v-1z"/><path d="m21.707 57.293h2v2h-2z" transform="matrix(.707 -.707 .707 .707 -34.569 33.13)"/><path d="m27.379 51.671h1.899v2h-1.899z" transform="matrix(.707 -.707 .707 .707 -28.947 35.458)"/><path d="m24.535 54.465h2v2h-2z" transform="matrix(.707 -.707 .707 .707 -31.741 34.301)"/><path d="m63 1h-40v14h-4.726c1.667-1.467 2.726-3.61 2.726-6 0-4.411-3.589-8-8-8s-8 3.589-8 8c0 2.518 1.172 4.765 2.997 6.233-4.001.914-6.997 4.494-6.997 8.767v11c0 2.757 2.243 5 5 5v19c0 2.206 1.794 4 4 4 1.201 0 2.266-.542 3-1.382.734.84 1.799 1.382 3 1.382 1.27 0 2.391-.606 3.124-1.532.818.931 2.004 1.532 3.338 1.532 1.26 0 2.467-.536 3.312-1.472l7.727-8.557c2.209 1.282 4.766 2.029 7.499 2.029 8.271 0 15-6.729 15-15 0-1.027-.105-2.03-.302-3h7.302zm-56 8c0-3.309 2.691-6 6-6s6 2.691 6 6-2.691 6-6 6-6-2.691-6-6zm-4 26v-11c0-3.86 3.141-7 7-7h23.5c.827 0 1.5.673 1.5 1.5s-.673 1.5-1.5 1.5h-15.5v16h-10v-15h-2v17c-1.654 0-3-1.346-3-3zm26-21c0-3.519 2.614-6.432 6-6.92v6.506l-1.422 1.422c-.027-.001-.051-.008-.078-.008h-4.422c-.048-.331-.078-.664-.078-1zm6.653 1.761.761-.761h6.506c-.488 3.387-3.401 6-6.92 6-.018 0-.036-.003-.054-.003.649-.636 1.054-1.519 1.054-2.497 0-1.114-.533-2.097-1.347-2.739zm1.347-2.761v-5.92c3.059.441 5.479 2.861 5.92 5.92zm-8.971 34.5-8.029 7.25v-32.75h3v15h3.302c-.197.97-.302 1.973-.302 3 0 2.733.747 5.29 2.029 7.5zm-18.029 13.5c-1.103 0-2-.897-2-2v-21h4.692c-.444.658-.692 1.443-.692 2.242v.758 18c0 1.103-.897 2-2 2zm8-2c0 1.103-.897 2-2 2s-2-.897-2-2v-18-.758c0-.526.214-1.042.586-1.414l.828-.828h2.586zm6.289 1.188c-.466.516-1.132.812-1.827.812-1.358 0-2.462-1.104-2.462-2.462 0-.695.296-1.361.812-1.827l8.347-7.537c.775.998 1.67 1.893 2.667 2.667zm16.711-7.188c-7.168 0-13-5.832-13-13s5.832-13 13-13 13 5.832 13 13-5.832 13-13 13zm20-18h-5.875c-2.066-5.816-7.609-10-14.125-10s-12.059 4.184-14.125 10h-1.875v-13h6.904c1.264.647 2.67 1 4.096 1 4.963 0 9-4.038 9-9s-4.037-9-9-9-9 4.038-9 9c0 .335.026.668.063 1h-2.063v-12h36z"/><path d="m59 21h-2v-8h-2v8h-2v-12h-2v12h-2v-16h-2v18h12z"/><path d="m57 27h2v2h-2z"/><path d="m57 31h2v2h-2z"/></svg>