<svg id="Capa_1" enable-background="new 0 0 512 512" height="512" viewBox="0 0 512 512" width="512" xmlns="http://www.w3.org/2000/svg"><path d="m322.257 246.217 167.71 7.153c-1.413-134.097-110.537-242.37-244.967-242.37-101.389 0-188.392 61.589-225.642 149.395z" fill="#67e5ee"/><path d="m15.333 341.466c34.684 93.164 124.42 159.534 229.667 159.534s194.983-66.37 229.668-159.534z" fill="#74727f"/><path d="m201.537 341.466h-186.204c28.414 76.323 93.78 134.653 174.349 153.251-54.567-34.733-49.482-126.619 11.855-153.251z" fill="#5f5e6a"/><path d="m486.172 310.897h25.828v-27.484h-38.603c-4.905 0-9.609-1.949-13.077-5.417l-5.944-5.944c-6.882-6.882-7.253-17.919-.849-25.247l6.415-7.341c-20.685-7.048-48.219-12.545-83.864-12.545h-44.743c-13.832 0-27.382-3.913-39.068-11.312-33.888-21.458-109.945-65.949-157.989-65.949-8.793 0-17.852.207-26.934.563-29.499 1.158-58.827 4.46-87.797 9.741-2.479 5.814-4.732 11.747-6.766 17.781l-11.966 58.274c-.533 6.592-.815 13.254-.815 19.983 0 26.218 4.135 51.468 11.76 75.151h312.161c-.026-.713-.054-1.426-.054-2.146 0-31.832 25.897-57.728 57.729-57.728s57.728 25.897 57.728 57.728c0 7.121-1.304 13.94-3.672 20.244h4.637c11.292 0 22.552-1.201 33.589-3.581l17.026-3.672h-4.731c-6.958 0-12.65-5.693-12.65-12.651v-5.798c-.001-6.958 5.692-12.65 12.649-12.65z" fill="#e7387f"/><path d="m165.005 328.291c-21.271-4.598-28.503-29.937-29.198-32.563-.038-.143-.066-.282-.09-.428l-8.585-54.239-11.098-72.846c-.197-1.291-.958-2.433-2.078-3.104-6.974-4.18-5.438-9.684-3.771-12.744.386-.709.549-1.49.517-2.263-1.119.039-2.237.074-3.357.118-29.499 1.158-58.827 4.46-87.797 9.741-2.479 5.814-4.732 11.747-6.766 17.781l-11.967 58.273c-.533 6.592-.815 13.254-.815 19.983 0 26.218 4.135 51.468 11.76 75.151h156.547c-.506-1.384-1.706-2.515-3.302-2.86z" fill="#e20a62"/><path d="m381.595 257.243c-39.569 0-71.762 32.193-71.762 71.762 0 .719.033 1.431.054 2.146h14.033c-.026-.713-.054-1.426-.054-2.146 0-31.832 25.897-57.728 57.729-57.728 31.831 0 57.728 25.897 57.728 57.728 0 7.121-1.304 13.94-3.672 20.244h4.637c3.418 0 6.833-.124 10.24-.343 1.829-6.324 2.829-12.996 2.829-19.901 0-39.569-32.193-71.762-71.762-71.762z" fill="#e20a62"/><path d="m323.867 329.005c0-22.578 13.036-42.157 31.969-51.64-.246-1.197-1.031-2.252-2.188-2.835-4.025-2.024-4.049-5.472-3.444-7.872.183-.725.149-1.461-.053-2.142-23.85 11.677-40.316 36.193-40.316 64.489 0 .719.033 1.431.054 2.146h14.033c-.027-.713-.055-1.426-.055-2.146z" fill="#ba203a"/><path d="m287.02 231.232c-1.134-.649-2.256-1.325-3.364-2.027-62.748-39.731-118.59-63.452-149.377-63.452-8.141 0-16.99.185-26.301.551-31.803 1.248-63.609 5.056-95.172 11.324-6.265 18.567-10.356 38.131-11.991 58.389l254.438 10.157c11.342.452 22.535-2.705 31.968-9.02 2.15-1.439 2.045-4.636-.201-5.922z" fill="#363540"/><path d="m127.132 241.06-11.098-72.846c-.123-.808-.488-1.542-1.003-2.154-2.318.07-4.67.151-7.053.245-31.803 1.248-63.609 5.056-95.172 11.324-6.265 18.566-10.356 38.13-11.991 58.388z" fill="#21212b"/><path d="m88.014 167.438 11.046 72.501 28.073 1.121-11.429-75.019c-2.537.074-5.111.161-7.726.264-6.656.261-13.311.65-19.964 1.133z" fill="#5f5e6a"/><path d="m71.907 238.855 27.152 1.084-11.046-72.501c-8.874.644-17.743 1.482-26.604 2.518z" fill="#4b4a55"/><path d="m163.789 274.67h-13.413c-4.445 0-8.048-3.603-8.048-8.048s3.603-8.048 8.048-8.048h13.413c4.445 0 8.048 3.603 8.048 8.048s-3.603 8.048-8.048 8.048z" fill="#eb5793"/><path d="m21.461 274.67h-13.413c-4.445 0-8.048-3.603-8.048-8.048s3.603-8.048 8.048-8.048h13.413c4.445 0 8.048 3.603 8.048 8.048.001 4.445-3.602 8.048-8.048 8.048z" fill="#eb5793"/><path d="m504.302 262.632c-7.97-6.343-22.484-15.81-45.055-23.405l-6.738 7.711c-6.515 7.456-6.137 18.685.864 25.686l6.048 6.048c3.529 3.529 8.315 5.511 13.305 5.511h39.274v-5.58c0-6.223-2.831-12.098-7.698-15.971z" fill="#d6d6d0"/><path d="m512 278.601c0-6.221-2.831-12.096-7.698-15.97-4.076-3.244-9.877-7.306-17.579-11.517-8.145 3.33-13.89 11.322-13.89 20.666 0 4.589 1.388 8.853 3.763 12.4h35.404z" fill="#eeefeb"/><path d="m485.71 310.618c-7.082 0-12.877 5.795-12.877 12.877v5.902c0 7.082 5.795 12.877 12.877 12.877h3.902l6.284-1.355c9.396-2.027 16.104-10.337 16.104-19.949v-10.352z" fill="#e20a62"/><path d="m492.417 329.397v-5.902c0-7.082 5.795-12.877 12.877-12.877h-19.584c-7.082 0-12.877 5.795-12.877 12.877v5.902c0 7.082 5.795 12.877 12.877 12.877h3.902l6.284-1.355c.841-.181 1.651-.43 2.447-.708-3.556-2.299-5.926-6.29-5.926-10.814z" fill="#ba203a"/><path d="m303.047 331.151v-72.971c0-3.646-1.196-7.268-3.308-10.118l-10.67-14.782c-2.601-3.604-7.633-4.415-11.236-1.815-3.604 2.602-4.417 7.632-1.815 11.236l10.729 14.863c.132.178.204.397.204.616v72.971z" fill="#e20a62"/><path d="m287.02 231.232c-1.134-.65-2.256-1.325-3.364-2.027-13.423-8.5-26.527-16.26-39.141-23.219.009.03 8.324 26.877-14.197 39.192l24.934.995c11.342.453 22.535-2.705 31.968-9.02 2.151-1.438 2.046-4.635-.2-5.921z" fill="#21212b"/><path d="m247.565 225.792h-18.077c-4.952 0-9.005 4.052-9.005 9.005v29.314c0 4.953 4.052 9.005 9.005 9.005h18.077c11.184 0 20.334-9.15 20.334-20.334v-6.655c0-11.185-9.15-20.335-20.334-20.335z" fill="#eeefeb"/><path d="m235.837 252.781v-6.655c0-9.707 6.898-17.873 16.031-19.862-1.389-.303-2.826-.471-4.303-.471h-18.077c-4.952 0-9.004 4.052-9.004 9.005v29.314c0 4.953 4.052 9.005 9.004 9.005h18.077c1.476 0 2.914-.169 4.303-.472-9.134-1.991-16.031-10.157-16.031-19.864z" fill="#d6d6d0"/><path d="m11.063 329.005c2.923 9.376 6.397 18.508 10.378 27.362h309.335c-4.405-8.148-6.91-17.468-6.91-27.362z" fill="#4b4a55"/><path d="m168.137 334.476c.98-2.01.216-4.284-1.498-5.471h-155.576c2.923 9.376 6.397 18.508 10.378 27.362h156.559c-14.004-6.927-12.677-16.122-9.863-21.891z" fill="#363540"/><path d="m381.595 388.342c-32.719 0-59.338-26.619-59.338-59.338s26.619-59.338 59.338-59.338 59.338 26.619 59.338 59.338-26.619 59.338-59.338 59.338z" fill="#21212b"/><path d="m406.899 364.134c.103-1.912-1.236-3.582-3.09-4.063-4.87-1.264-5.705-5.051-5.624-7.789.052-1.768-1.048-3.387-2.737-3.913-25.893-8.064-25.387-32.207-24.351-40.703.2-1.641-.641-3.227-2.104-3.997-4.047-2.128-4.469-5.76-4.122-8.408.241-1.841-.768-3.59-2.496-4.269-7.285-2.863-7.407-8.349-6.554-11.922.272-1.14.019-2.284-.613-3.191-19.51 9.73-32.951 29.883-32.951 53.126 0 32.719 26.619 59.338 59.338 59.338 13.896 0 26.681-4.814 36.805-12.845-10.265-1.318-11.717-7.363-11.501-11.364z"/><circle cx="381.595" cy="329.005" fill="#d6d6d0" r="33.497"/><path d="m398.185 352.281c.052-1.768-1.048-3.387-2.737-3.913-25.893-8.064-25.387-32.207-24.351-40.703.2-1.641-.641-3.227-2.104-3.997-1.986-1.044-3.096-2.452-3.674-3.926-10.263 5.731-17.221 16.697-17.221 29.263 0 18.47 15.027 33.497 33.497 33.497 6.582 0 12.72-1.916 17.903-5.207-1.109-1.576-1.359-3.463-1.313-5.014z" fill="#c6c6c1"/><path d="m381.595 369.513c-22.337 0-40.509-18.172-40.509-40.509s18.172-40.509 40.509-40.509 40.509 18.172 40.509 40.509-18.172 40.509-40.509 40.509zm0-66.994c-14.604 0-26.485 11.881-26.485 26.485s11.881 26.485 26.485 26.485 26.486-11.881 26.486-26.485-11.882-26.485-26.486-26.485z" fill="#eeefeb"/><path d="m403.809 360.07c-4.87-1.264-5.705-5.051-5.624-7.789.023-.792-.194-1.547-.582-2.194-4.45 3.387-9.997 5.403-16.008 5.403-14.604 0-26.485-11.881-26.485-26.485 0-10.623 6.29-19.8 15.339-24.017-.363-.541-.852-1.002-1.455-1.319-4.047-2.128-4.469-5.76-4.122-8.408.135-1.03-.133-2.024-.688-2.826-13.646 6.524-23.097 20.462-23.097 36.569 0 22.337 18.172 40.509 40.509 40.509 9.12 0 17.543-3.031 24.321-8.136-.543-.618-1.268-1.089-2.108-1.307z" fill="#d6d6d0"/></svg>