<svg height="512" viewBox="0 0 64 64" width="512" xmlns="http://www.w3.org/2000/svg"><g id="Filled_outline" data-name="Filled outline"><path d="m26 39h-18l-1 4v8h20v-8z" fill="#e1462b"/><path d="m7 51h4v4h-4z" fill="#394d5c"/><path d="m23 51h4v4h-4z" fill="#394d5c"/><path d="m7 43h3a2 2 0 0 1 2 2v2a0 0 0 0 1 0 0h-5a0 0 0 0 1 0 0v-4a0 0 0 0 1 0 0z" fill="#fcf05a"/><path d="m22 43h5a0 0 0 0 1 0 0v2a2 2 0 0 1 -2 2h-3a0 0 0 0 1 0 0v-4a0 0 0 0 1 0 0z" fill="#fcf05a" transform="matrix(-1 0 0 -1 49 90)"/><path d="m15 46h4v2h-4z" fill="#a83020"/><path d="m10 31h14a2 2 0 0 1 2 2v6a0 0 0 0 1 0 0h-18a0 0 0 0 1 0 0v-6a2 2 0 0 1 2-2z" fill="#aad5e8"/><path d="m4 35h4v4h-4z" fill="#a83020"/><path d="m26 35h4v4h-4z" fill="#a83020"/><path d="m56 39h-18l-1 4v8h20v-8z" fill="#195c85"/><path d="m37 51h4v4h-4z" fill="#394d5c"/><path d="m53 51h4v4h-4z" fill="#394d5c"/><path d="m37 43h3a2 2 0 0 1 2 2v2a0 0 0 0 1 0 0h-5a0 0 0 0 1 0 0v-4a0 0 0 0 1 0 0z" fill="#fcf05a"/><path d="m52 43h5a0 0 0 0 1 0 0v2a2 2 0 0 1 -2 2h-3a0 0 0 0 1 0 0v-4a0 0 0 0 1 0 0z" fill="#fcf05a" transform="matrix(-1 0 0 -1 109 90)"/><path d="m45 46h4v2h-4z" fill="#10425b"/><path d="m40 31h14a2 2 0 0 1 2 2v6a0 0 0 0 1 0 0h-18a0 0 0 0 1 0 0v-6a2 2 0 0 1 2-2z" fill="#aad5e8"/><path d="m34 35h4v4h-4z" fill="#195c85"/><path d="m56 35h4v4h-4z" fill="#195c85"/><path d="m3 55h58v4h-58z" fill="#aad5e8"/><path d="m10 11h44v14h-44z" fill="#e1462b"/><path d="m18 5h4v6h-4z" fill="#aad5e8"/><path d="m42 5h4v6h-4z" fill="#aad5e8"/><g fill="#f4f4e6"><path d="m25 22h-4a1 1 0 0 1 -1-1v-6a1 1 0 0 1 1-1h4v2h-3v4h3z"/><path d="m35 22h-2v-4.586l-1.414-1.414h-1.172l-1.414 1.414v4.586h-2v-5a1 1 0 0 1 .293-.707l2-2a1 1 0 0 1 .707-.293h2a1 1 0 0 1 .707.293l2 2a1 1 0 0 1 .293.707z"/><path d="m28 18h7v2h-7z"/><path d="m43 22a1 1 0 0 1 -.707-.293l-2-2a1 1 0 0 1 -.293-.7v1.993a1 1 0 0 1 -2 0v-6a1 1 0 0 1 1-1h5a1 1 0 0 1 1 1v4a1 1 0 0 1 -1 1h-.586l.293.293a1 1 0 0 1 -.707 1.707zm-3-6v2.992a.985.985 0 0 1 .076-.375 1 1 0 0 1 .924-.617h2v-2z"/></g><path d="m15 19h-2v-5h4v2h-2z" fill="#a83020"/><path d="m51 22h-4v-2h2v-4h2z" fill="#a83020"/><path d="m15 46h4v2h-4z"/><path d="m45 46h4v2h-4z"/><path d="m61 54h-3v-11a.984.984 0 0 0 -.03-.242l-.69-2.758h2.72a1 1 0 0 0 1-1v-4a1 1 0 0 0 -1-1h-3v-1a3 3 0 0 0 -3-3h-14a3 3 0 0 0 -3 3v1h-3a1 1 0 0 0 -1 1v4a1 1 0 0 0 1 1h2.72l-.69 2.758a.984.984 0 0 0 -.03.242v11h-8v-11a.984.984 0 0 0 -.03-.242l-.69-2.758h2.72a1 1 0 0 0 1-1v-4a1 1 0 0 0 -1-1h-3v-1a3 3 0 0 0 -3-3h-14a3 3 0 0 0 -3 3v1h-3a1 1 0 0 0 -1 1v4a1 1 0 0 0 1 1h2.72l-.69 2.758a.984.984 0 0 0 -.03.242v11h-3a1 1 0 0 0 -1 1v4a1 1 0 0 0 1 1h58a1 1 0 0 0 1-1v-4a1 1 0 0 0 -1-1zm-19 0v-2h10v2zm-2-10a1 1 0 0 1 1 1v1h-3v-2zm-2 4h4a1 1 0 0 0 1-1v-2a3 3 0 0 0 -3-3h-1.719l.5-2h16.438l.5 2h-1.719a3 3 0 0 0 -3 3v2a1 1 0 0 0 1 1h4v2h-18zm18-2h-3v-1a1 1 0 0 1 1-1h2zm-2 6h2v2h-2zm5-16v2h-2v-2zm-20-3a1 1 0 0 1 1-1h14a1 1 0 0 1 1 1v5h-16zm-4 3h2v2h-2zm3 16h2v2h-2zm-26 2v-2h10v2zm-2-10a1 1 0 0 1 1 1v1h-3v-2zm-2 4h4a1 1 0 0 0 1-1v-2a3 3 0 0 0 -3-3h-1.719l.5-2h16.438l.5 2h-1.719a3 3 0 0 0 -3 3v2a1 1 0 0 0 1 1h4v2h-18zm18-2h-3v-1a1 1 0 0 1 1-1h2zm-2 6h2v2h-2zm5-16v2h-2v-2zm-20-3a1 1 0 0 1 1-1h14a1 1 0 0 1 1 1v5h-16zm-4 3h2v2h-2zm3 16h2v2h-2zm52 6h-56v-2h56z"/><path d="m22 4h-4a1 1 0 0 0 -1 1v5h-8v16h46v-16h-8v-5a1 1 0 0 0 -1-1h-4a1 1 0 0 0 -1 1v5h-18v-5a1 1 0 0 0 -1-1zm-3 2h2v4h-2zm34 18h-42v-12h42zm-10-18h2v4h-2z"/><path d="m20 15v6a1 1 0 0 0 1 1h4v-2h-3v-4h3v-2h-4a1 1 0 0 0 -1 1z"/><path d="m32.707 14.293a1 1 0 0 0 -.707-.293h-2a1 1 0 0 0 -.707.293l-2 2a1 1 0 0 0 -.293.707v5h2v-2h4v2h2v-5a1 1 0 0 0 -.293-.707zm-3.707 3.707v-.586l1.414-1.414h1.172l1.414 1.414v.586z"/><path d="m44 14h-5a1 1 0 0 0 -1 1v6a1 1 0 0 0 2 0v-1.993a1 1 0 0 0 .293.7l2 2a1 1 0 0 0 1.414-1.414l-.293-.293h.586a1 1 0 0 0 1-1v-4a1 1 0 0 0 -1-1zm-1 4h-2a1 1 0 0 0 -.924.617.985.985 0 0 0 -.076.375v-2.992h3z"/><path d="m13 19h2v-3h2v-2h-4z"/><path d="m51 16h-2v4h-2v2h4z"/></g></svg>